<svg xmlns="http://www.w3.org/2000/svg" version="1.1" xmlns:xlink="http://www.w3.org/1999/xlink" xmlns:svgjs="http://svgjs.dev/svgjs" viewBox="0 -0.31539999999999946 679.65185546875 325.6825875"><style>text.label { fill:gray; }</style><rect width="98.97265625" height="26.341796875" x="217.98583984375" y="0" fill="white" stroke="black"></rect><text x="228.82373046875" y="17.3779296875" font-family="Helvetica" font-size="12" svgjs:data="{&quot;leading&quot;:&quot;1.3&quot;}"><tspan dy="0" x="228.82373046875" svgjs:data="{&quot;newLined&quot;:true}">User Interface</tspan></text><rect width="121.0859375" height="26.341796875" x="206.92919921875" y="76.341796875" fill="white" stroke="black"></rect><text x="217.08154296875" y="93.7197265625" font-family="Helvetica" font-size="12" svgjs:data="{&quot;leading&quot;:&quot;1.3&quot;}"><tspan dy="0" x="217.08154296875" svgjs:data="{&quot;newLined&quot;:true}">Trading Agregator</tspan></text><rect width="70.8828125" height="26.341796875" x="0" y="229.025390625" fill="white" stroke="black"></rect><text x="9.51953125" y="246.4033203125" font-family="Helvetica" font-size="12" svgjs:data="{&quot;leading&quot;:&quot;1.3&quot;}"><tspan dy="0" x="9.51953125" svgjs:data="{&quot;newLined&quot;:true}">Schedule</tspan></text><rect width="127.197265625" height="26.341796875" x="187.1591796875" y="229.025390625" fill="white" stroke="black"></rect><text x="198.29296875" y="246.4033203125" font-family="Helvetica" font-size="12" svgjs:data="{&quot;leading&quot;:&quot;1.3&quot;}"><tspan dy="0" x="198.29296875" svgjs:data="{&quot;newLined&quot;:true}">Graph visualization</tspan></text><path d="M437.845490625 170.9307921875C443.318990625 172.68969218750001 448.792490625 172.6857921875 454.26599062500003 170.9194921875M438.54879062500004 160.4224921875C444.16379062500005 161.8804921875 449.593790625 161.7904921875 454.69979062500005 160.4954921875M436.774690625 165.8503921875C443.35179062500004 167.5622921875 449.756490625 167.1486921875 456.08859062500005 165.8390921875M456.08859062500005 165.8390921875C456.08859062500005 171.3618921875 451.98039062500004 175.4701921875 446.45749062500005 175.4701921875C440.93469062500003 175.4701921875 436.795690625 171.3619921875 436.795690625 165.8390921875C436.795690625 160.3162921875 440.93469062500003 156.2387921875 446.45749062500005 156.2387921875C451.98039062500004 156.2387921875 456.08859062500005 160.3162921875 456.08859062500005 165.8390921875Z " fill="white" stroke="black"></path><svg width="2" height="0" style="opacity: 0; position: absolute; left: -100%; top: -100%; overflow: hidden;" focusable="false" aria-hidden="true"><path d="M218.5122125 0L228.3500125 10.5449L238.1878125 -0.30739999999999945M218.2578125 -0.31539999999999946H238.2578125V19.6846H218.2578125Z "></path></svg><text x="463.96136093750005" y="170.0615234375" font-family="Helvetica" font-size="11" svgjs:data="{&quot;leading&quot;:&quot;1.3&quot;}"><tspan dy="0" x="463.96136093750005" svgjs:data="{&quot;newLined&quot;:true}">API</tspan></text><rect width="100.671875" height="26.341796875" x="396.095703125" y="229.025390625" fill="white" stroke="black"></rect><text x="405.650390625" y="246.4033203125" font-family="Helvetica" font-size="12" svgjs:data="{&quot;leading&quot;:&quot;1.3&quot;}"><tspan dy="0" x="405.650390625" svgjs:data="{&quot;newLined&quot;:true}">Gmail Handler</tspan></text><rect width="72.81640625" height="26.341796875" x="95.44140625" y="152.68359375" fill="white" stroke="black"></rect><text x="104.638671875" y="170.0615234375" font-family="Helvetica" font-size="12" svgjs:data="{&quot;leading&quot;:&quot;1.3&quot;}"><tspan dy="0" x="104.638671875" svgjs:data="{&quot;newLined&quot;:true}">Database</tspan></text><rect width="119.92578125" height="26.341796875" x="410.68310546875" y="76.341796875" fill="white" stroke="black"></rect><text x="421.02880859375" y="93.7197265625" font-family="Helvetica" font-size="12" svgjs:data="{&quot;leading&quot;:&quot;1.3&quot;}"><tspan dy="0" x="421.02880859375" svgjs:data="{&quot;newLined&quot;:true}">Trading Platforms</tspan></text><rect width="99.04296875" height="26.341796875" x="580.60888671875" y="76.341796875" fill="white" stroke="black"></rect><text x="590.43505859375" y="93.7197265625" font-family="Helvetica" font-size="12" svgjs:data="{&quot;leading&quot;:&quot;1.3&quot;}"><tspan dy="0" x="590.43505859375" svgjs:data="{&quot;newLined&quot;:true}">Exchange rate</tspan></text><path d="M25.69580625 156.1698921875L35.53360625 166.71479218750002L45.37140625 155.8624921875M25.44140625 155.8544921875H45.44140625V175.8544921875H25.44140625Z " fill="white" stroke="black"></path><path d="M187.271978125 305.6825875L197.109778125 316.2274875L206.947578125 305.37518750000004M187.017578125 305.3671875H207.017578125V325.3671875H187.017578125Z " fill="white" stroke="black"></path><path d="M218.5122125 156.1698921875L228.3500125 166.71479218750002L238.1878125 155.8624921875M218.2578125 155.8544921875H238.2578125V175.8544921875H218.2578125Z " fill="white" stroke="black"></path><g><polyline points="265.47216796875,26.341796875 265.47216796875,51.341796875 265.47216796875,76.341796875" stroke-width="0.25" stroke="black" fill="none" marker-end="url(#SvgjsMarker1000)"></polyline><polyline points="269.47216796875,76.341796875 269.47216796875,51.341796875 269.47216796875,26.341796875" stroke-width="0.25" stroke="black" fill="none" stroke-dasharray="2" marker-end="url(#SvgjsMarker1001)"></polyline></g><defs><marker markerWidth="40" markerHeight="30" refX="20" refY="15" viewBox="0 0 40 30" orient="auto" id="SvgjsMarker1000"><path d="m 0 0 l 20 15 l -20 15 a 7.5 1 90 0 0 0 -30 z" fill="black" stroke-width="0.1" stroke="black"></path></marker><marker markerWidth="40" markerHeight="30" refX="20" refY="15" viewBox="0 0 40 30" orient="auto" id="SvgjsMarker1001"><path d="m 0 0 l 20 15 l -20 15 a 7.5 1 90 0 0 0 -30 z" fill="black" stroke-width="0.1" stroke="black"></path></marker><marker markerWidth="40" markerHeight="30" refX="20" refY="15" viewBox="0 0 40 30" orient="auto" id="SvgjsMarker1002"><path d="m 0 0 l 20 15 l -20 15 a 7.5 1 90 0 0 0 -30 z" fill="black" stroke-width="0.1" stroke="black"></path></marker><marker markerWidth="40" markerHeight="30" refX="20" refY="15" viewBox="0 0 40 30" orient="auto" id="SvgjsMarker1003"><path d="m 0 0 l 20 15 l -20 15 a 7.5 1 90 0 0 0 -30 z" fill="black" stroke-width="0.1" stroke="black"></path></marker><marker markerWidth="40" markerHeight="30" refX="20" refY="15" viewBox="0 0 40 30" orient="auto" id="SvgjsMarker1004"><path d="m 0 0 l 20 15 l -20 15 a 7.5 1 90 0 0 0 -30 z" fill="black" stroke-width="0.1" stroke="black"></path></marker><marker markerWidth="40" markerHeight="30" refX="20" refY="15" viewBox="0 0 40 30" orient="auto" id="SvgjsMarker1005"><path d="m 0 0 l 20 15 l -20 15 a 7.5 1 90 0 0 0 -30 z" fill="black" stroke-width="0.1" stroke="black"></path></marker><marker markerWidth="40" markerHeight="30" refX="20" refY="15" viewBox="0 0 40 30" orient="auto" id="SvgjsMarker1006"><path d="m 0 0 l 20 15 l -20 15 a 7.5 1 90 0 0 0 -30 z" fill="black" stroke-width="0.1" stroke="black"></path></marker><marker markerWidth="40" markerHeight="30" refX="20" refY="15" viewBox="0 0 40 30" orient="auto" id="SvgjsMarker1007"><path d="m 0 0 l 20 15 l -20 15 a 7.5 1 90 0 0 0 -30 z" fill="black" stroke-width="0.1" stroke="black"></path></marker><marker markerWidth="40" markerHeight="30" refX="20" refY="15" viewBox="0 0 40 30" orient="auto" id="SvgjsMarker1008"><path d="m 0 0 l 20 15 l -20 15 a 7.5 1 90 0 0 0 -30 z" fill="black" stroke-width="0.1" stroke="black"></path></marker><marker markerWidth="40" markerHeight="30" refX="20" refY="15" viewBox="0 0 40 30" orient="auto" id="SvgjsMarker1009"><path d="m 0 0 l 20 15 l -20 15 a 7.5 1 90 0 0 0 -30 z" fill="black" stroke-width="0.1" stroke="black"></path></marker><marker markerWidth="40" markerHeight="30" refX="20" refY="15" viewBox="0 0 40 30" orient="auto" id="SvgjsMarker1010"><path d="m 0 0 l 20 15 l -20 15 a 7.5 1 90 0 0 0 -30 z" fill="black" stroke-width="0.1" stroke="black"></path></marker><marker markerWidth="40" markerHeight="30" refX="20" refY="15" viewBox="0 0 40 30" orient="auto" id="SvgjsMarker1011"><path d="m 0 0 l 20 15 l -20 15 a 7.5 1 90 0 0 0 -30 z" fill="black" stroke-width="0.1" stroke="black"></path></marker><marker markerWidth="40" markerHeight="30" refX="20" refY="15" viewBox="0 0 40 30" orient="auto" id="SvgjsMarker1012"><path d="m 0 0 l 20 15 l -20 15 a 7.5 1 90 0 0 0 -30 z" fill="black" stroke-width="0.1" stroke="black"></path></marker><marker markerWidth="40" markerHeight="30" refX="20" refY="15" viewBox="0 0 40 30" orient="auto" id="SvgjsMarker1013"><path d="m 0 0 l 20 15 l -20 15 a 7.5 1 90 0 0 0 -30 z" fill="black" stroke-width="0.1" stroke="black"></path></marker><marker markerWidth="40" markerHeight="30" refX="20" refY="15" viewBox="0 0 40 30" orient="auto" id="SvgjsMarker1014"><path d="m 0 0 l 20 15 l -20 15 a 7.5 1 90 0 0 0 -30 z" fill="black" stroke-width="0.1" stroke="black"></path></marker><marker markerWidth="40" markerHeight="30" refX="20" refY="15" viewBox="0 0 40 30" orient="auto" id="SvgjsMarker1015"><path d="m 0 0 l 20 15 l -20 15 a 7.5 1 90 0 0 0 -30 z" fill="black" stroke-width="0.1" stroke="black"></path></marker></defs><g><polyline points="206.92919921875,99.4724932899 35.44140625,127.68359375 35.44140625,155.8544921875" stroke-width="0.25" stroke="black" fill="none" marker-end="url(#SvgjsMarker1002)"></polyline></g><g><polyline points="35.44140625,175.8544921875 35.44140625,204.025390625 35.44140625,229.025390625" stroke-width="0.25" stroke="black" fill="none" marker-end="url(#SvgjsMarker1003)"></polyline></g><g><polyline points="35.44140625,255.3671875 35.44140625,280.3671875 187.017578125,313.2010265126561" stroke-width="0.25" stroke="black" fill="none" marker-end="url(#SvgjsMarker1004)"></polyline></g><g><polyline points="207.017578125,314.5773208891647 640.13037109375,280.3671875 640.13037109375,242.1962890625 640.13037109375,204.025390625 640.13037109375,165.8544921875 640.13037109375,127.68359375 328.01513671875,95.71403340698392" stroke-width="0.25" stroke="black" fill="none" marker-end="url(#SvgjsMarker1005)"></polyline></g><g><polyline points="253.94122386439224,102.68359375 228.2578125,127.68359375 228.2578125,155.8544921875" stroke-width="0.25" stroke="black" fill="none" marker-end="url(#SvgjsMarker1006)"></polyline></g><g><polyline points="228.2578125,175.8544921875 228.2578125,204.025390625 242.9941698566659,229.025390625" stroke-width="0.25" stroke="black" fill="none" marker-end="url(#SvgjsMarker1007)"></polyline></g><g><polyline points="258.5214551433341,229.025390625 273.2578125,204.025390625 273.2578125,165.8544921875 273.2578125,127.68359375 269.46850915106046,102.68359375" stroke-width="0.25" stroke="black" fill="none" marker-end="url(#SvgjsMarker1008)"></polyline></g><g><polyline points="289.98774252538806,102.68359375 332.72509765625,127.68359375 436.431640625,162.49752631369003" stroke-width="0.25" stroke="black" fill="none" marker-end="url(#SvgjsMarker1009)"></polyline></g><g><polyline points="446.431640625,175.8544921875 446.431640625,204.025390625 446.431640625,229.025390625" stroke-width="0.25" stroke="black" fill="none" marker-end="url(#SvgjsMarker1010)"></polyline></g><g><polyline points="218.67549777779377,102.68359375 129.849609375,127.68359375 129.849609375,152.68359375" stroke-width="0.25" stroke="black" fill="none" marker-end="url(#SvgjsMarker1011)"></polyline><polyline points="133.849609375,152.68359375 133.849609375,127.68359375 222.67549777779377,102.68359375" stroke-width="0.25" stroke="black" fill="none" stroke-dasharray="2" marker-end="url(#SvgjsMarker1012)"></polyline></g><g><polyline points="436.431640625,161.78104147336688 352.72509765625,127.68359375 296.8887582083517,102.68359375" stroke-width="0.25" stroke="black" fill="none" marker-end="url(#SvgjsMarker1013)"></polyline></g><g><polyline points="455.9233800185524,102.68359375 427.97802734375,127.68359375 441.59716880572506,155.8544921875" stroke-width="0.25" stroke="black" fill="none" marker-end="url(#SvgjsMarker1014)"></polyline></g><g><polyline points="615.4077550185524,102.68359375 587.46240234375,127.68359375 456.431640625,163.147926756504" stroke-width="0.25" stroke="black" fill="none" marker-end="url(#SvgjsMarker1015)"></polyline></g></svg>