<svg xmlns="http://www.w3.org/2000/svg" version="1.1" xmlns:xlink="http://www.w3.org/1999/xlink" xmlns:svgjs="http://svgjs.dev/svgjs" viewBox="0 -0.31539999999999946 637.0126953125 402.024384375"><style>text.label { fill:gray; }</style><rect width="98.97265625" height="26.341796875" x="136.38818359375" y="76.341796875" fill="white" stroke="black"></rect><text x="147.22607421875" y="93.7197265625" font-family="Helvetica" font-size="12" svgjs:data="{&quot;leading&quot;:&quot;1.3&quot;}"><tspan dy="0" x="147.22607421875" svgjs:data="{&quot;newLined&quot;:true}">User Interface</tspan></text><rect width="121.0859375" height="26.341796875" x="244.81787109375" y="152.68359375" fill="white" stroke="black"></rect><text x="254.97021484375" y="170.0615234375" font-family="Helvetica" font-size="12" svgjs:data="{&quot;leading&quot;:&quot;1.3&quot;}"><tspan dy="0" x="254.97021484375" svgjs:data="{&quot;newLined&quot;:true}">Trading Agregator</tspan></text><rect width="70.8828125" height="26.341796875" x="0" y="305.3671875" fill="white" stroke="black"></rect><text x="9.51953125" y="322.7451171875" font-family="Helvetica" font-size="12" svgjs:data="{&quot;leading&quot;:&quot;1.3&quot;}"><tspan dy="0" x="9.51953125" svgjs:data="{&quot;newLined&quot;:true}">Schedule</tspan></text><rect width="127.197265625" height="26.341796875" x="187.1591796875" y="305.3671875" fill="white" stroke="black"></rect><text x="198.29296875" y="322.7451171875" font-family="Helvetica" font-size="12" svgjs:data="{&quot;leading&quot;:&quot;1.3&quot;}"><tspan dy="0" x="198.29296875" svgjs:data="{&quot;newLined&quot;:true}">Graph visualization</tspan></text><path d="M406.1062328125 247.2725890625C411.5797328125 249.03148906250001 417.0532328125 249.0275890625 422.52673281250003 247.2612890625M406.80953281250004 236.7642890625C412.42453281250005 238.2222890625 417.8545328125 238.1322890625 422.96053281250005 236.8372890625M405.0354328125 242.1921890625C411.61253281250004 243.9040890625 418.0172328125 243.4904890625 424.34933281250005 242.1808890625M424.34933281250005 242.1808890625C424.34933281250005 247.7036890625 420.24113281250004 251.8119890625 414.71823281250005 251.8119890625C409.19543281250003 251.8119890625 405.0564328125 247.7037890625 405.0564328125 242.1808890625C405.0564328125 236.6580890625 409.19543281250003 232.5805890625 414.71823281250005 232.5805890625C420.24113281250004 232.5805890625 424.34933281250005 236.6580890625 424.34933281250005 242.1808890625Z " fill="white" stroke="black"></path><svg width="2" height="0" style="opacity: 0; position: absolute; left: -100%; top: -100%; overflow: hidden;" focusable="false" aria-hidden="true"><path d="M218.5122125 0L228.3500125 10.5449L238.1878125 -0.30739999999999945M218.2578125 -0.31539999999999946H238.2578125V19.6846H218.2578125Z "></path></svg><text x="432.22210312500005" y="246.4033203125" font-family="Helvetica" font-size="11" svgjs:data="{&quot;leading&quot;:&quot;1.3&quot;}"><tspan dy="0" x="432.22210312500005" svgjs:data="{&quot;newLined&quot;:true}">API</tspan></text><rect width="100.671875" height="26.341796875" x="364.3564453125" y="305.3671875" fill="white" stroke="black"></rect><text x="373.9111328125" y="322.7451171875" font-family="Helvetica" font-size="12" svgjs:data="{&quot;leading&quot;:&quot;1.3&quot;}"><tspan dy="0" x="373.9111328125" svgjs:data="{&quot;newLined&quot;:true}">Gmail Handler</tspan></text><rect width="72.81640625" height="26.341796875" x="95.44140625" y="229.025390625" fill="white" stroke="black"></rect><text x="104.638671875" y="246.4033203125" font-family="Helvetica" font-size="12" svgjs:data="{&quot;leading&quot;:&quot;1.3&quot;}"><tspan dy="0" x="104.638671875" svgjs:data="{&quot;newLined&quot;:true}">Database</tspan></text><rect width="119.92578125" height="26.341796875" x="517.0869140625" y="0" fill="white" stroke="black"></rect><text x="527.4326171875" y="17.3779296875" font-family="Helvetica" font-size="12" svgjs:data="{&quot;leading&quot;:&quot;1.3&quot;}"><tspan dy="0" x="527.4326171875" svgjs:data="{&quot;newLined&quot;:true}">Trading Platforms</tspan></text><rect width="99.04296875" height="26.341796875" x="470.5068359375" y="152.68359375" fill="white" stroke="black"></rect><text x="480.3330078125" y="170.0615234375" font-family="Helvetica" font-size="12" svgjs:data="{&quot;leading&quot;:&quot;1.3&quot;}"><tspan dy="0" x="480.3330078125" svgjs:data="{&quot;newLined&quot;:true}">Exchange rate</tspan></text><path d="M435.01442273107835 82.60179111091618L476.06762273107836 82.64979111091618C478.7301227310784 87.10149111091619 478.92302273107833 91.73079111091619 476.06762273107836 96.42299111091619C462.59242273107833 96.43749111091618 451.04112273107836 96.18609111091618 435.72792273107837 96.38449111091617C429.64422273107834 96.38149111091619 430.43402273107836 82.59179111091618 435.0478227310783 82.63259111091618C439.28192273107834 82.53279111091618 439.33992273107833 96.32879111091619 435.72552273107834 96.37879111091618 " fill="white" stroke="black"></path><text x="481.3586743464859" y="93.7197265625" font-family="Helvetica" font-size="11" svgjs:data="{&quot;leading&quot;:&quot;1.3&quot;}"><tspan dy="0" x="481.3586743464859" svgjs:data="{&quot;newLined&quot;:true}">Subscribe for news</tspan></text><path d="M25.69580625 232.5116890625L35.53360625 243.05658906250002L45.37140625 232.2042890625M25.44140625 232.1962890625H45.44140625V252.1962890625H25.44140625Z " fill="white" stroke="black"></path><path d="M199.20703671875 382.024384375L209.04483671875 392.569284375L218.88263671875 381.71698437500004M198.95263671875 381.708984375H218.95263671875V401.708984375H198.95263671875Z " fill="white" stroke="black"></path><path d="M218.5122125 232.5116890625L228.3500125 243.05658906250002L238.1878125 232.2042890625M218.2578125 232.1962890625H238.2578125V252.1962890625H218.2578125Z " fill="white" stroke="black"></path><g><polyline points="183.87451171875,102.68359375 183.87451171875,127.68359375 262.1319886292317,152.68359375" stroke-width="0.25" stroke="black" fill="none" marker-end="url(#SvgjsMarker1000)"></polyline><polyline points="266.1319886292317,152.68359375 187.87451171875,127.68359375 187.87451171875,102.68359375" stroke-width="0.25" stroke="black" fill="none" stroke-dasharray="2" marker-end="url(#SvgjsMarker1001)"></polyline></g><defs><marker markerWidth="40" markerHeight="30" refX="20" refY="15" viewBox="0 0 40 30" orient="auto" id="SvgjsMarker1000"><path d="m 0 0 l 20 15 l -20 15 a 7.5 1 90 0 0 0 -30 z" fill="black" stroke-width="0.1" stroke="black"></path></marker><marker markerWidth="40" markerHeight="30" refX="20" refY="15" viewBox="0 0 40 30" orient="auto" id="SvgjsMarker1001"><path d="m 0 0 l 20 15 l -20 15 a 7.5 1 90 0 0 0 -30 z" fill="black" stroke-width="0.1" stroke="black"></path></marker><marker markerWidth="40" markerHeight="30" refX="20" refY="15" viewBox="0 0 40 30" orient="auto" id="SvgjsMarker1002"><path d="m 0 0 l 20 15 l -20 15 a 7.5 1 90 0 0 0 -30 z" fill="black" stroke-width="0.1" stroke="black"></path></marker><marker markerWidth="40" markerHeight="30" refX="20" refY="15" viewBox="0 0 40 30" orient="auto" id="SvgjsMarker1003"><path d="m 0 0 l 20 15 l -20 15 a 7.5 1 90 0 0 0 -30 z" fill="black" stroke-width="0.1" stroke="black"></path></marker><marker markerWidth="40" markerHeight="30" refX="20" refY="15" viewBox="0 0 40 30" orient="auto" id="SvgjsMarker1004"><path d="m 0 0 l 20 15 l -20 15 a 7.5 1 90 0 0 0 -30 z" fill="black" stroke-width="0.1" stroke="black"></path></marker><marker markerWidth="40" markerHeight="30" refX="20" refY="15" viewBox="0 0 40 30" orient="auto" id="SvgjsMarker1005"><path d="m 0 0 l 20 15 l -20 15 a 7.5 1 90 0 0 0 -30 z" fill="black" stroke-width="0.1" stroke="black"></path></marker><marker markerWidth="40" markerHeight="30" refX="20" refY="15" viewBox="0 0 40 30" orient="auto" id="SvgjsMarker1006"><path d="m 0 0 l 20 15 l -20 15 a 7.5 1 90 0 0 0 -30 z" fill="black" stroke-width="0.1" stroke="black"></path></marker><marker markerWidth="40" markerHeight="30" refX="20" refY="15" viewBox="0 0 40 30" orient="auto" id="SvgjsMarker1007"><path d="m 0 0 l 20 15 l -20 15 a 7.5 1 90 0 0 0 -30 z" fill="black" stroke-width="0.1" stroke="black"></path></marker><marker markerWidth="40" markerHeight="30" refX="20" refY="15" viewBox="0 0 40 30" orient="auto" id="SvgjsMarker1008"><path d="m 0 0 l 20 15 l -20 15 a 7.5 1 90 0 0 0 -30 z" fill="black" stroke-width="0.1" stroke="black"></path></marker><marker markerWidth="40" markerHeight="30" refX="20" refY="15" viewBox="0 0 40 30" orient="auto" id="SvgjsMarker1009"><path d="m 0 0 l 20 15 l -20 15 a 7.5 1 90 0 0 0 -30 z" fill="black" stroke-width="0.1" stroke="black"></path></marker><marker markerWidth="40" markerHeight="30" refX="20" refY="15" viewBox="0 0 40 30" orient="auto" id="SvgjsMarker1010"><path d="m 0 0 l 20 15 l -20 15 a 7.5 1 90 0 0 0 -30 z" fill="black" stroke-width="0.1" stroke="black"></path></marker><marker markerWidth="40" markerHeight="30" refX="20" refY="15" viewBox="0 0 40 30" orient="auto" id="SvgjsMarker1011"><path d="m 0 0 l 20 15 l -20 15 a 7.5 1 90 0 0 0 -30 z" fill="black" stroke-width="0.1" stroke="black"></path></marker><marker markerWidth="40" markerHeight="30" refX="20" refY="15" viewBox="0 0 40 30" orient="auto" id="SvgjsMarker1012"><path d="m 0 0 l 20 15 l -20 15 a 7.5 1 90 0 0 0 -30 z" fill="black" stroke-width="0.1" stroke="black"></path></marker><marker markerWidth="40" markerHeight="30" refX="20" refY="15" viewBox="0 0 40 30" orient="auto" id="SvgjsMarker1013"><path d="m 0 0 l 20 15 l -20 15 a 7.5 1 90 0 0 0 -30 z" fill="black" stroke-width="0.1" stroke="black"></path></marker><marker markerWidth="40" markerHeight="30" refX="20" refY="15" viewBox="0 0 40 30" orient="auto" id="SvgjsMarker1014"><path d="m 0 0 l 20 15 l -20 15 a 7.5 1 90 0 0 0 -30 z" fill="black" stroke-width="0.1" stroke="black"></path></marker><marker markerWidth="40" markerHeight="30" refX="20" refY="15" viewBox="0 0 40 30" orient="auto" id="SvgjsMarker1015"><path d="m 0 0 l 20 15 l -20 15 a 7.5 1 90 0 0 0 -30 z" fill="black" stroke-width="0.1" stroke="black"></path></marker><marker markerWidth="40" markerHeight="30" refX="20" refY="15" viewBox="0 0 40 30" orient="auto" id="SvgjsMarker1016"><path d="m 0 0 l 20 15 l -20 15 a 7.5 1 90 0 0 0 -30 z" fill="black" stroke-width="0.1" stroke="black"></path></marker><marker markerWidth="40" markerHeight="30" refX="20" refY="15" viewBox="0 0 40 30" orient="auto" id="SvgjsMarker1017"><path d="m 40 0 l -20 15 l 20 15 a 7.5 1 -90 0 1 0 -30 z" fill="black" stroke-width="0.1" stroke="black"></path></marker><marker markerWidth="40" markerHeight="30" refX="20" refY="15" viewBox="0 0 40 30" orient="auto" id="SvgjsMarker1018"><path d="m 0 0 l 20 15 l -20 15 a 7.5 1 90 0 0 0 -30 z" fill="black" stroke-width="0.1" stroke="black"></path></marker></defs><g><polyline points="244.81787109375,174.41623033466576 35.44140625,204.025390625 35.44140625,232.1962890625" stroke-width="0.25" stroke="black" fill="none" marker-end="url(#SvgjsMarker1002)"></polyline></g><g><polyline points="35.44140625,252.1962890625 35.44140625,280.3671875 35.44140625,305.3671875" stroke-width="0.25" stroke="black" fill="none" marker-end="url(#SvgjsMarker1003)"></polyline></g><g><polyline points="35.44140625,331.708984375 35.44140625,356.708984375 198.95263671875,389.69182387735117" stroke-width="0.25" stroke="black" fill="none" marker-end="url(#SvgjsMarker1004)"></polyline></g><g><polyline points="218.95263671875,390.50654796506444 500.0283203125,356.708984375 500.0283203125,318.5380859375 500.0283203125,280.3671875 500.0283203125,242.1962890625 500.0283203125,204.025390625 365.90380859375,177.72591265123773" stroke-width="0.25" stroke="black" fill="none" marker-end="url(#SvgjsMarker1005)"></polyline></g><g><polyline points="278.75637979859033,179.025390625 228.2578125,204.025390625 228.2578125,232.1962890625" stroke-width="0.25" stroke="black" fill="none" marker-end="url(#SvgjsMarker1006)"></polyline></g><g><polyline points="228.2578125,252.1962890625 228.2578125,280.3671875 242.9941698566659,305.3671875" stroke-width="0.25" stroke="black" fill="none" marker-end="url(#SvgjsMarker1007)"></polyline></g><g><polyline points="269.5986299018256,305.3671875 305.36083984375,280.3671875 305.36083984375,242.1962890625 305.36083984375,204.025390625 305.36083984375,179.025390625" stroke-width="0.25" stroke="black" fill="none" marker-end="url(#SvgjsMarker1008)"></polyline></g><g><polyline points="314.8028984595862,179.025390625 332.72509765625,204.025390625 404.6923828125,237.53944354605562" stroke-width="0.25" stroke="black" fill="none" marker-end="url(#SvgjsMarker1009)"></polyline></g><g><polyline points="414.6923828125,252.1962890625 414.6923828125,280.3671875 414.6923828125,305.3671875" stroke-width="0.25" stroke="black" fill="none" marker-end="url(#SvgjsMarker1010)"></polyline></g><g><polyline points="243.49065371199185,179.025390625 129.849609375,204.025390625 129.849609375,229.025390625" stroke-width="0.25" stroke="black" fill="none" marker-end="url(#SvgjsMarker1011)"></polyline><polyline points="133.849609375,229.025390625 133.849609375,204.025390625 247.49065371199185,179.025390625" stroke-width="0.25" stroke="black" fill="none" stroke-dasharray="2" marker-end="url(#SvgjsMarker1012)"></polyline></g><g><polyline points="414.6923828125,232.1962890625 414.6923828125,204.025390625 343.08577447724787,179.025390625" stroke-width="0.25" stroke="black" fill="none" marker-end="url(#SvgjsMarker1013)"></polyline></g><g><polyline points="586.538701251575,26.341796875 604.5498046875,51.341796875 604.5498046875,89.5126953125 604.5498046875,127.68359375 604.5498046875,165.8544921875 604.5498046875,204.025390625 424.6923828125,240.1857857036884" stroke-width="0.25" stroke="black" fill="none" marker-end="url(#SvgjsMarker1014)"></polyline></g><g><polyline points="520.0283203125,179.025390625 520.0283203125,204.025390625 424.6923828125,238.57255918042628" stroke-width="0.25" stroke="black" fill="none" marker-end="url(#SvgjsMarker1015)"></polyline></g><g><polyline points="454.7568359375,95.5126953125 454.7568359375,127.68359375 356.9100454444972,152.68359375" stroke-width="0.25" stroke="black" fill="none" marker-end="url(#SvgjsMarker1016)" marker-start="url(#SvgjsMarker1017)"></polyline></g><g><polyline points="534.8525199245033,26.341796875 454.7568359375,51.341796875 454.7568359375,83.5126953125" stroke-width="0.25" stroke="black" fill="none" marker-end="url(#SvgjsMarker1018)"></polyline></g></svg>