<?xml version="1.0" encoding="UTF-8" standalone="no"?><svg xmlns="http://www.w3.org/2000/svg" xmlns:xlink="http://www.w3.org/1999/xlink" contentScriptType="application/ecmascript" contentStyleType="text/css" height="361px" preserveAspectRatio="none" style="width:590px;height:361px;" version="1.1" viewBox="0 0 590 361" width="590px" zoomAndPan="magnify"><defs><filter height="300%" id="fke9d8jjkoc71" width="300%" x="-1" y="-1"><feGaussianBlur result="blurOut" stdDeviation="2.0"/><feColorMatrix in="blurOut" result="blurOut2" type="matrix" values="0 0 0 0 0 0 0 0 0 0 0 0 0 0 0 0 0 0 .4 0"/><feOffset dx="4.0" dy="4.0" in="blurOut2" result="blurOut3"/><feBlend in="SourceGraphic" in2="blurOut3" mode="normal"/></filter></defs><g><text fill="#000000" font-family="sans-serif" font-size="14" font-weight="bold" lengthAdjust="spacingAndGlyphs" textLength="363" x="114" y="22.9951">"Visualize portfolio in pie chart" Process View</text><line style="stroke: #A80036; stroke-width: 1.0; stroke-dasharray: 5.0,5.0;" x1="65" x2="65" y1="68.5938" y2="321.6563"/><line style="stroke: #A80036; stroke-width: 1.0; stroke-dasharray: 5.0,5.0;" x1="207" x2="207" y1="68.5938" y2="321.6563"/><line style="stroke: #A80036; stroke-width: 1.0; stroke-dasharray: 5.0,5.0;" x1="415" x2="415" y1="68.5938" y2="321.6563"/><line style="stroke: #A80036; stroke-width: 1.0; stroke-dasharray: 5.0,5.0;" x1="541" x2="541" y1="68.5938" y2="321.6563"/><rect fill="#FEFECE" filter="url(#fke9d8jjkoc71)" height="30.2969" style="stroke: #A80036; stroke-width: 1.5;" width="110" x="8" y="33.2969"/><text fill="#000000" font-family="sans-serif" font-size="14" lengthAdjust="spacingAndGlyphs" textLength="96" x="15" y="53.292">User Interface</text><rect fill="#FEFECE" filter="url(#fke9d8jjkoc71)" height="30.2969" style="stroke: #A80036; stroke-width: 1.5;" width="110" x="8" y="320.6563"/><text fill="#000000" font-family="sans-serif" font-size="14" lengthAdjust="spacingAndGlyphs" textLength="96" x="15" y="340.6514">User Interface</text><rect fill="#FEFECE" filter="url(#fke9d8jjkoc71)" height="30.2969" style="stroke: #A80036; stroke-width: 1.5;" width="147" x="132" y="33.2969"/><text fill="#000000" font-family="sans-serif" font-size="14" lengthAdjust="spacingAndGlyphs" textLength="133" x="139" y="53.292">Trading Aggregator</text><rect fill="#FEFECE" filter="url(#fke9d8jjkoc71)" height="30.2969" style="stroke: #A80036; stroke-width: 1.5;" width="147" x="132" y="320.6563"/><text fill="#000000" font-family="sans-serif" font-size="14" lengthAdjust="spacingAndGlyphs" textLength="133" x="139" y="340.6514">Trading Aggregator</text><rect fill="#FEFECE" filter="url(#fke9d8jjkoc71)" height="30.2969" style="stroke: #A80036; stroke-width: 1.5;" width="143" x="342" y="33.2969"/><text fill="#000000" font-family="sans-serif" font-size="14" lengthAdjust="spacingAndGlyphs" textLength="129" x="349" y="53.292">Graph visualization</text><rect fill="#FEFECE" filter="url(#fke9d8jjkoc71)" height="30.2969" style="stroke: #A80036; stroke-width: 1.5;" width="143" x="342" y="320.6563"/><text fill="#000000" font-family="sans-serif" font-size="14" lengthAdjust="spacingAndGlyphs" textLength="129" x="349" y="340.6514">Graph visualization</text><rect fill="#FEFECE" filter="url(#fke9d8jjkoc71)" height="30.2969" style="stroke: #A80036; stroke-width: 1.5;" width="80" x="499" y="33.2969"/><text fill="#000000" font-family="sans-serif" font-size="14" lengthAdjust="spacingAndGlyphs" textLength="66" x="506" y="53.292">Database</text><rect fill="#FEFECE" filter="url(#fke9d8jjkoc71)" height="30.2969" style="stroke: #A80036; stroke-width: 1.5;" width="80" x="499" y="320.6563"/><text fill="#000000" font-family="sans-serif" font-size="14" lengthAdjust="spacingAndGlyphs" textLength="66" x="506" y="340.6514">Database</text><polygon fill="#A80036" points="195.5,95.7266,205.5,99.7266,195.5,103.7266,199.5,99.7266" style="stroke: #A80036; stroke-width: 1.0;"/><line style="stroke: #A80036; stroke-width: 1.0;" x1="65" x2="201.5" y1="99.7266" y2="99.7266"/><text fill="#000000" font-family="sans-serif" font-size="13" lengthAdjust="spacingAndGlyphs" textLength="96" x="72" y="94.6606">Select portfolio</text><polygon fill="#A80036" points="403.5,124.8594,413.5,128.8594,403.5,132.8594,407.5,128.8594" style="stroke: #A80036; stroke-width: 1.0;"/><line style="stroke: #A80036; stroke-width: 1.0;" x1="207.5" x2="409.5" y1="128.8594" y2="128.8594"/><text fill="#000000" font-family="sans-serif" font-size="13" lengthAdjust="spacingAndGlyphs" textLength="79" x="214.5" y="123.7935">Get portfolio</text><polygon fill="#A80036" points="218.5,153.9922,208.5,157.9922,218.5,161.9922,214.5,157.9922" style="stroke: #A80036; stroke-width: 1.0;"/><line style="stroke: #A80036; stroke-width: 1.0;" x1="212.5" x2="414.5" y1="157.9922" y2="157.9922"/><text fill="#000000" font-family="sans-serif" font-size="13" lengthAdjust="spacingAndGlyphs" textLength="184" x="224.5" y="152.9263">What stocks, prices and date</text><polygon fill="#A80036" points="529,183.125,539,187.125,529,191.125,533,187.125" style="stroke: #A80036; stroke-width: 1.0;"/><line style="stroke: #A80036; stroke-width: 1.0;" x1="207.5" x2="535" y1="187.125" y2="187.125"/><text fill="#000000" font-family="sans-serif" font-size="13" lengthAdjust="spacingAndGlyphs" textLength="225" x="214.5" y="182.0591">Choose stocks with prices and date</text><polygon fill="#A80036" points="218.5,212.2578,208.5,216.2578,218.5,220.2578,214.5,216.2578" style="stroke: #A80036; stroke-width: 1.0;"/><line style="stroke: #A80036; stroke-width: 1.0;" x1="212.5" x2="540" y1="216.2578" y2="216.2578"/><text fill="#000000" font-family="sans-serif" font-size="13" lengthAdjust="spacingAndGlyphs" textLength="132" x="224.5" y="211.1919">Provided information</text><polygon fill="#A80036" points="403.5,241.3906,413.5,245.3906,403.5,249.3906,407.5,245.3906" style="stroke: #A80036; stroke-width: 1.0;"/><line style="stroke: #A80036; stroke-width: 1.0;" x1="207.5" x2="409.5" y1="245.3906" y2="245.3906"/><text fill="#000000" font-family="sans-serif" font-size="13" lengthAdjust="spacingAndGlyphs" textLength="79" x="214.5" y="240.3247">Get portfolio</text><polygon fill="#A80036" points="218.5,270.5234,208.5,274.5234,218.5,278.5234,214.5,274.5234" style="stroke: #A80036; stroke-width: 1.0;"/><line style="stroke: #A80036; stroke-width: 1.0;" x1="212.5" x2="414.5" y1="274.5234" y2="274.5234"/><text fill="#000000" font-family="sans-serif" font-size="13" lengthAdjust="spacingAndGlyphs" textLength="88" x="224.5" y="269.4575">Provide graph</text><polygon fill="#A80036" points="76,299.6563,66,303.6563,76,307.6563,72,303.6563" style="stroke: #A80036; stroke-width: 1.0;"/><line style="stroke: #A80036; stroke-width: 1.0;" x1="70" x2="206.5" y1="303.6563" y2="303.6563"/><text fill="#000000" font-family="sans-serif" font-size="13" lengthAdjust="spacingAndGlyphs" textLength="112" x="82" y="298.5903">Visualize portfolio</text></g></svg>