<?xml version="1.0" encoding="UTF-8" standalone="no"?><svg xmlns="http://www.w3.org/2000/svg" xmlns:xlink="http://www.w3.org/1999/xlink" contentScriptType="application/ecmascript" contentStyleType="text/css" height="620px" preserveAspectRatio="none" style="width:2115px;height:620px;" version="1.1" viewBox="0 0 2115 620" width="2115px" zoomAndPan="magnify"><defs/><g><polygon fill="#FFFFFF" points="753,146,763,136,1116,136,1116,268,1106,278,753,278,753,146" style="stroke: #000000; stroke-width: 1.5;"/><line style="stroke: #000000; stroke-width: 1.5;" x1="1106" x2="1115" y1="146" y2="137"/><line style="stroke: #000000; stroke-width: 1.5;" x1="753" x2="1106" y1="146" y2="146"/><line style="stroke: #000000; stroke-width: 1.5;" x1="1106" x2="1106" y1="146" y2="278"/><text fill="#000000" font-family="Courier" font-size="14" font-weight="bold" lengthAdjust="spacingAndGlyphs" textLength="240" x="810.5" y="161.9951">&lt;&lt;device&gt;&gt; :Application Server</text><polygon fill="#FFFFFF" points="98,476,108,466,453,466,453,598,443,608,98,608,98,476" style="stroke: #000000; stroke-width: 1.5;"/><line style="stroke: #000000; stroke-width: 1.5;" x1="443" x2="452" y1="476" y2="467"/><line style="stroke: #000000; stroke-width: 1.5;" x1="98" x2="443" y1="476" y2="476"/><line style="stroke: #000000; stroke-width: 1.5;" x1="443" x2="443" y1="476" y2="608"/><text fill="#000000" font-family="Courier" font-size="14" font-weight="bold" lengthAdjust="spacingAndGlyphs" textLength="160" x="191.5" y="491.9951">&lt;&lt;device&gt;&gt; :ClientPC</text><polygon fill="#FFFFFF" points="1156,146,1166,136,2093,136,2093,268,2083,278,1156,278,1156,146" style="stroke: #000000; stroke-width: 1.5;"/><line style="stroke: #000000; stroke-width: 1.5;" x1="2083" x2="2092" y1="146" y2="137"/><line style="stroke: #000000; stroke-width: 1.5;" x1="1156" x2="2083" y1="146" y2="146"/><line style="stroke: #000000; stroke-width: 1.5;" x1="2083" x2="2083" y1="146" y2="278"/><text fill="#000000" font-family="Courier" font-size="14" font-weight="bold" lengthAdjust="spacingAndGlyphs" textLength="136" x="1552.5" y="161.9951">Trading platforms</text><polygon fill="#FFFFFF" points="796,218,806,208,1092,208,1092,244.2969,1082,254.2969,796,254.2969,796,218" style="stroke: #000000; stroke-width: 1.5;"/><line style="stroke: #000000; stroke-width: 1.5;" x1="1082" x2="1091" y1="218" y2="209"/><line style="stroke: #000000; stroke-width: 1.5;" x1="796" x2="1082" y1="218" y2="218"/><line style="stroke: #000000; stroke-width: 1.5;" x1="1082" x2="1082" y1="218" y2="254.2969"/><text fill="#000000" font-family="Courier" font-size="14" lengthAdjust="spacingAndGlyphs" textLength="256" x="811" y="240.9951">«executionenvironment» :PythonVM</text><polygon fill="#FFFFFF" points="6,359,16,349,206,349,206,385.2969,196,395.2969,6,395.2969,6,359" style="stroke: #000000; stroke-width: 1.5;"/><line style="stroke: #000000; stroke-width: 1.5;" x1="196" x2="205" y1="359" y2="350"/><line style="stroke: #000000; stroke-width: 1.5;" x1="6" x2="196" y1="359" y2="359"/><line style="stroke: #000000; stroke-width: 1.5;" x1="196" x2="196" y1="359" y2="395.2969"/><text fill="#000000" font-family="Courier" font-size="14" lengthAdjust="spacingAndGlyphs" textLength="160" x="21" y="381.9951">«device» :Web Server</text><polygon fill="#FFFFFF" points="141,548,151,538,429,538,429,574.2969,419,584.2969,141,584.2969,141,548" style="stroke: #000000; stroke-width: 1.5;"/><line style="stroke: #000000; stroke-width: 1.5;" x1="419" x2="428" y1="548" y2="539"/><line style="stroke: #000000; stroke-width: 1.5;" x1="141" x2="419" y1="548" y2="548"/><line style="stroke: #000000; stroke-width: 1.5;" x1="419" x2="419" y1="548" y2="584.2969"/><text fill="#000000" font-family="Courier" font-size="14" lengthAdjust="spacingAndGlyphs" textLength="248" x="156" y="570.9951">«executionenvironment» :Browser</text><polygon fill="#FFFFFF" points="241,359,251,349,481,349,481,385.2969,471,395.2969,241,395.2969,241,359" style="stroke: #000000; stroke-width: 1.5;"/><line style="stroke: #000000; stroke-width: 1.5;" x1="471" x2="480" y1="359" y2="350"/><line style="stroke: #000000; stroke-width: 1.5;" x1="241" x2="471" y1="359" y2="359"/><line style="stroke: #000000; stroke-width: 1.5;" x1="471" x2="471" y1="359" y2="395.2969"/><text fill="#000000" font-family="Courier" font-size="14" lengthAdjust="spacingAndGlyphs" textLength="200" x="256" y="381.9951">«device» :Database Server</text><polygon fill="#FFFFFF" points="516,359,526,349,796,349,796,385.2969,786,395.2969,516,395.2969,516,359" style="stroke: #000000; stroke-width: 1.5;"/><line style="stroke: #000000; stroke-width: 1.5;" x1="786" x2="795" y1="359" y2="350"/><line style="stroke: #000000; stroke-width: 1.5;" x1="516" x2="786" y1="359" y2="359"/><line style="stroke: #000000; stroke-width: 1.5;" x1="786" x2="786" y1="359" y2="395.2969"/><text fill="#000000" font-family="Courier" font-size="14" lengthAdjust="spacingAndGlyphs" textLength="240" x="531" y="381.9951">«device» :Exchange Rate Server</text><polygon fill="#FFFFFF" points="690,548,700,538,906,538,906,574.2969,896,584.2969,690,584.2969,690,548" style="stroke: #000000; stroke-width: 1.5;"/><line style="stroke: #000000; stroke-width: 1.5;" x1="896" x2="905" y1="548" y2="539"/><line style="stroke: #000000; stroke-width: 1.5;" x1="690" x2="896" y1="548" y2="548"/><line style="stroke: #000000; stroke-width: 1.5;" x1="896" x2="896" y1="548" y2="584.2969"/><text fill="#000000" font-family="Courier" font-size="14" lengthAdjust="spacingAndGlyphs" textLength="176" x="705" y="570.9951">«device» :Gmail Server</text><polygon fill="#FFFFFF" points="1837,218,1847,208,2069,208,2069,244.2969,2059,254.2969,1837,254.2969,1837,218" style="stroke: #000000; stroke-width: 1.5;"/><line style="stroke: #000000; stroke-width: 1.5;" x1="2059" x2="2068" y1="218" y2="209"/><line style="stroke: #000000; stroke-width: 1.5;" x1="1837" x2="2059" y1="218" y2="218"/><line style="stroke: #000000; stroke-width: 1.5;" x1="2059" x2="2059" y1="218" y2="254.2969"/><text fill="#000000" font-family="Courier" font-size="14" lengthAdjust="spacingAndGlyphs" textLength="192" x="1852" y="240.9951">«device» :Binance Server</text><polygon fill="#FFFFFF" points="1562,218,1572,208,1802,208,1802,244.2969,1792,254.2969,1562,254.2969,1562,218" style="stroke: #000000; stroke-width: 1.5;"/><line style="stroke: #000000; stroke-width: 1.5;" x1="1792" x2="1801" y1="218" y2="209"/><line style="stroke: #000000; stroke-width: 1.5;" x1="1562" x2="1792" y1="218" y2="218"/><line style="stroke: #000000; stroke-width: 1.5;" x1="1792" x2="1792" y1="218" y2="254.2969"/><text fill="#000000" font-family="Courier" font-size="14" lengthAdjust="spacingAndGlyphs" textLength="200" x="1577" y="240.9951">«device» :Coinbase Server</text><polygon fill="#FFFFFF" points="1199,218,1209,208,1527,208,1527,244.2969,1517,254.2969,1199,254.2969,1199,218" style="stroke: #000000; stroke-width: 1.5;"/><line style="stroke: #000000; stroke-width: 1.5;" x1="1517" x2="1526" y1="218" y2="209"/><line style="stroke: #000000; stroke-width: 1.5;" x1="1199" x2="1517" y1="218" y2="218"/><line style="stroke: #000000; stroke-width: 1.5;" x1="1517" x2="1517" y1="218" y2="254.2969"/><text fill="#000000" font-family="Courier" font-size="14" lengthAdjust="spacingAndGlyphs" textLength="288" x="1214" y="240.9951">«device» :Interactive Brokers Server</text><polygon fill="#FFFFFF" points="941,548,951,538,1181,538,1181,574.2969,1171,584.2969,941,584.2969,941,548" style="stroke: #000000; stroke-width: 1.5;"/><line style="stroke: #000000; stroke-width: 1.5;" x1="1171" x2="1180" y1="548" y2="539"/><line style="stroke: #000000; stroke-width: 1.5;" x1="941" x2="1171" y1="548" y2="548"/><line style="stroke: #000000; stroke-width: 1.5;" x1="1171" x2="1171" y1="548" y2="584.2969"/><text fill="#000000" font-family="Courier" font-size="14" lengthAdjust="spacingAndGlyphs" textLength="200" x="956" y="570.9951">«device» :Schedule Server</text><polygon fill="#FFFFFF" points="1216,548,1226,538,1544,538,1544,574.2969,1534,584.2969,1216,584.2969,1216,548" style="stroke: #000000; stroke-width: 1.5;"/><line style="stroke: #000000; stroke-width: 1.5;" x1="1534" x2="1543" y1="548" y2="539"/><line style="stroke: #000000; stroke-width: 1.5;" x1="1216" x2="1534" y1="548" y2="548"/><line style="stroke: #000000; stroke-width: 1.5;" x1="1534" x2="1534" y1="548" y2="584.2969"/><text fill="#000000" font-family="Courier" font-size="14" lengthAdjust="spacingAndGlyphs" textLength="288" x="1231" y="570.9951">«device» :Graph Visualization Server</text><path d="M752.8741,233.6601 C752.2161,233.7946 751.5204,233.9368 750.7878,234.0866 C744.9264,235.2849 736.701,236.9683 726.5308,239.0534 C706.1903,243.2238 678.0706,249.0013 645.5263,255.72 C580.4375,269.1575 497.65,286.36 424,302 C351.06,317.49 268.79,335.35 206.21,349.02 " fill="none" id="appnode-webnode" style="stroke: #A80036; stroke-width: 1.0;"/><text fill="#000000" font-family="Courier" font-size="13" lengthAdjust="spacingAndGlyphs" textLength="80" x="425" y="315.0669">«internet»</text><path d="M106,395.19 C106,407.38 106,423.5513 106,441.0061 C106,445.3698 106,449.8137 106,454.2957 C106,456.5368 106,458.7873 106,461.042 C106,462.1694 106,463.2979 106,464.4267 C106,464.709 106,464.9912 106,465.2734 " fill="none" id="webnode-usernode" style="stroke: #A80036; stroke-width: 1.0;"/><text fill="#000000" font-family="Courier" font-size="13" lengthAdjust="spacingAndGlyphs" textLength="80" x="107" y="438.0669">«internet»</text><path d="M768.2995,278.129 C768.345,278.2286 768.3908,278.3282 768.4368,278.4275 C768.6209,278.8251 768.8093,279.2204 769.0022,279.6133 C769.388,280.3989 769.7916,281.1747 770.2139,281.9387 C771.0584,283.4667 771.9775,284.9474 772.9775,286.3655 C774.9775,289.2017 777.3013,291.7875 780,294 C793.82,305.33 842.46,298.61 860,302 C933.61,316.23 952.96,319.77 1022,349 C1105.41,384.31 1120.96,404.03 1199,450 C1249.69,479.86 1307.72,515.36 1344.12,537.79 " fill="none" id="appnode-graphnode" style="stroke: #A80036; stroke-width: 1.0;"/><text fill="#000000" font-family="Courier" font-size="13" lengthAdjust="spacingAndGlyphs" textLength="80" x="1111" y="376.5669">«internet»</text><path d="M769.0047,278.2281 C769.0503,278.3284 769.0961,278.4286 769.1421,278.5287 C769.2342,278.7288 769.3273,278.9284 769.4215,279.1275 C769.7981,279.924 770.1912,280.712 770.6015,281.4899 C771.4222,283.0457 772.3117,284.5607 773.2757,286.0205 C775.2038,288.9402 777.43,291.6388 780,294 C792.39,305.38 801.52,295.42 817,302 C851.48,316.67 859.23,323.84 887,349 C954.2,409.9 1017.98,497.38 1046.04,537.88 " fill="none" id="appnode-schedulenode" style="stroke: #A80036; stroke-width: 1.0;"/><text fill="#000000" font-family="Courier" font-size="13" lengthAdjust="spacingAndGlyphs" textLength="80" x="933" y="376.5669">«internet»</text><path d="M769.5546,135.9097 C769.7455,135.6152 769.939,135.3224 770.1351,135.0313 C770.5273,134.4493 770.93,133.8744 771.3435,133.3071 C772.1704,132.1725 773.0404,131.0682 773.9554,129.9974 C775.7853,127.8558 777.795,125.8481 780,124 C807.93,100.59 1076.82,105.13 1108,124 C1129.885,137.245 1143.63,162.1675 1152.0225,184.6288 C1153.0716,187.4364 1154.037,190.2056 1154.9242,192.9087 C1155.146,193.5845 1155.363,194.2562 1155.5751,194.9233 C1155.6811,195.2568 1155.786,195.5892 1155.8897,195.9204 " fill="none" id="appnode-platformsnode" style="stroke: #A80036; stroke-width: 1.0;"/><text fill="#000000" font-family="Courier" font-size="13" lengthAdjust="spacingAndGlyphs" textLength="56" x="934" y="108.0669">«HTTPS»</text><path d="M773.7286,278.0342 C773.766,278.1412 773.8036,278.2481 773.8412,278.355 C773.9164,278.5689 773.9919,278.7827 774.0677,278.9964 C774.6741,280.7062 775.2987,282.4117 775.9409,284.103 C777.2253,287.4856 778.58,290.8113 780,294 C791.6,320.04 805.39,321.53 813,349 C831.53,415.89 814.52,499.02 804.35,537.95 " fill="none" id="appnode-gmailnode" style="stroke: #A80036; stroke-width: 1.0;"/><text fill="#000000" font-family="Courier" font-size="13" lengthAdjust="spacingAndGlyphs" textLength="56" x="822" y="376.5669">«HTTPS»</text><path d="M752.9146,242.7006 C752.7449,242.9252 752.573,243.1529 752.3988,243.3834 C751.7022,244.3058 750.9698,245.2753 750.2044,246.2888 C744.0806,254.3963 735.835,265.3125 726.7575,277.33 C708.6025,301.365 687.12,329.805 672.63,348.99 " fill="none" id="appnode-exchangenode" style="stroke: #A80036; stroke-width: 1.0;"/><text fill="#000000" font-family="Courier" font-size="13" lengthAdjust="spacingAndGlyphs" textLength="56" x="707" y="315.0669">«HTTPS»</text><path d="M752.6577,234.9033 C752.476,234.9663 752.2916,235.0304 752.1045,235.0954 C751.3559,235.3555 750.5633,235.6309 749.7279,235.9211 C743.045,238.243 733.6243,241.5163 722.0998,245.5208 C699.0509,253.5297 667.5869,264.4631 632.7788,276.5588 C563.1625,300.75 480.17,329.59 424.37,348.98 " fill="none" id="appnode-dbservernode" style="stroke: #A80036; stroke-width: 1.0;"/><text fill="#000000" font-family="Courier" font-size="13" lengthAdjust="spacingAndGlyphs" textLength="80" x="551" y="315.0669">«internet»</text></g></svg>