<?xml version="1.0" encoding="UTF-8" standalone="no"?><svg xmlns="http://www.w3.org/2000/svg" xmlns:xlink="http://www.w3.org/1999/xlink" contentScriptType="application/ecmascript" contentStyleType="text/css" height="303px" preserveAspectRatio="none" style="width:603px;height:303px;" version="1.1" viewBox="0 0 603 303" width="603px" zoomAndPan="magnify"><defs><filter height="300%" id="f1z81840iua7e" width="300%" x="-1" y="-1"><feGaussianBlur result="blurOut" stdDeviation="2.0"/><feColorMatrix in="blurOut" result="blurOut2" type="matrix" values="0 0 0 0 0 0 0 0 0 0 0 0 0 0 0 0 0 0 .4 0"/><feOffset dx="4.0" dy="4.0" in="blurOut2" result="blurOut3"/><feBlend in="SourceGraphic" in2="blurOut3" mode="normal"/></filter></defs><g><text fill="#000000" font-family="sans-serif" font-size="14" font-weight="bold" lengthAdjust="spacingAndGlyphs" textLength="363" x="120.75" y="22.9951">"Visualize portfolio in pie chart" Process View</text><line style="stroke: #A80036; stroke-width: 1.0; stroke-dasharray: 5.0,5.0;" x1="65" x2="65" y1="68.5938" y2="263.3906"/><line style="stroke: #A80036; stroke-width: 1.0; stroke-dasharray: 5.0,5.0;" x1="207" x2="207" y1="68.5938" y2="263.3906"/><line style="stroke: #A80036; stroke-width: 1.0; stroke-dasharray: 5.0,5.0;" x1="397.5" x2="397.5" y1="68.5938" y2="263.3906"/><line style="stroke: #A80036; stroke-width: 1.0; stroke-dasharray: 5.0,5.0;" x1="522.5" x2="522.5" y1="68.5938" y2="263.3906"/><rect fill="#FEFECE" filter="url(#f1z81840iua7e)" height="30.2969" style="stroke: #A80036; stroke-width: 1.5;" width="110" x="8" y="33.2969"/><text fill="#000000" font-family="sans-serif" font-size="14" lengthAdjust="spacingAndGlyphs" textLength="96" x="15" y="53.292">User Interface</text><rect fill="#FEFECE" filter="url(#f1z81840iua7e)" height="30.2969" style="stroke: #A80036; stroke-width: 1.5;" width="110" x="8" y="262.3906"/><text fill="#000000" font-family="sans-serif" font-size="14" lengthAdjust="spacingAndGlyphs" textLength="96" x="15" y="282.3857">User Interface</text><rect fill="#FEFECE" filter="url(#f1z81840iua7e)" height="30.2969" style="stroke: #A80036; stroke-width: 1.5;" width="147" x="132" y="33.2969"/><text fill="#000000" font-family="sans-serif" font-size="14" lengthAdjust="spacingAndGlyphs" textLength="133" x="139" y="53.292">Trading Aggregator</text><rect fill="#FEFECE" filter="url(#f1z81840iua7e)" height="30.2969" style="stroke: #A80036; stroke-width: 1.5;" width="147" x="132" y="262.3906"/><text fill="#000000" font-family="sans-serif" font-size="14" lengthAdjust="spacingAndGlyphs" textLength="133" x="139" y="282.3857">Trading Aggregator</text><rect fill="#FEFECE" filter="url(#f1z81840iua7e)" height="30.2969" style="stroke: #A80036; stroke-width: 1.5;" width="80" x="355.5" y="33.2969"/><text fill="#000000" font-family="sans-serif" font-size="14" lengthAdjust="spacingAndGlyphs" textLength="66" x="362.5" y="53.292">Database</text><rect fill="#FEFECE" filter="url(#f1z81840iua7e)" height="30.2969" style="stroke: #A80036; stroke-width: 1.5;" width="80" x="355.5" y="262.3906"/><text fill="#000000" font-family="sans-serif" font-size="14" lengthAdjust="spacingAndGlyphs" textLength="66" x="362.5" y="282.3857">Database</text><rect fill="#FEFECE" filter="url(#f1z81840iua7e)" height="30.2969" style="stroke: #A80036; stroke-width: 1.5;" width="143" x="449.5" y="33.2969"/><text fill="#000000" font-family="sans-serif" font-size="14" lengthAdjust="spacingAndGlyphs" textLength="129" x="456.5" y="53.292">Graph visualization</text><rect fill="#FEFECE" filter="url(#f1z81840iua7e)" height="30.2969" style="stroke: #A80036; stroke-width: 1.5;" width="143" x="449.5" y="262.3906"/><text fill="#000000" font-family="sans-serif" font-size="14" lengthAdjust="spacingAndGlyphs" textLength="129" x="456.5" y="282.3857">Graph visualization</text><polygon fill="#A80036" points="195.5,95.7266,205.5,99.7266,195.5,103.7266,199.5,99.7266" style="stroke: #A80036; stroke-width: 1.0;"/><line style="stroke: #A80036; stroke-width: 1.0;" x1="65" x2="201.5" y1="99.7266" y2="99.7266"/><text fill="#000000" font-family="sans-serif" font-size="13" lengthAdjust="spacingAndGlyphs" textLength="96" x="72" y="94.6606">Select portfolio</text><polygon fill="#A80036" points="385.5,124.8594,395.5,128.8594,385.5,132.8594,389.5,128.8594" style="stroke: #A80036; stroke-width: 1.0;"/><line style="stroke: #A80036; stroke-width: 1.0;" x1="207.5" x2="391.5" y1="128.8594" y2="128.8594"/><text fill="#000000" font-family="sans-serif" font-size="13" lengthAdjust="spacingAndGlyphs" textLength="166" x="214.5" y="123.7935">cursor.execute(sql_query)</text><polygon fill="#A80036" points="218.5,153.9922,208.5,157.9922,218.5,161.9922,214.5,157.9922" style="stroke: #A80036; stroke-width: 1.0;"/><line style="stroke: #A80036; stroke-width: 1.0;" x1="212.5" x2="396.5" y1="157.9922" y2="157.9922"/><text fill="#000000" font-family="sans-serif" font-size="13" lengthAdjust="spacingAndGlyphs" textLength="100" x="224.5" y="152.9263">cursor.fetchall()</text><polygon fill="#A80036" points="511,183.125,521,187.125,511,191.125,515,187.125" style="stroke: #A80036; stroke-width: 1.0;"/><line style="stroke: #A80036; stroke-width: 1.0;" x1="207.5" x2="517" y1="187.125" y2="187.125"/><text fill="#000000" font-family="sans-serif" font-size="13" lengthAdjust="spacingAndGlyphs" textLength="77" x="214.5" y="182.0591">px.pie(data)</text><polygon fill="#A80036" points="218.5,212.2578,208.5,216.2578,218.5,220.2578,214.5,216.2578" style="stroke: #A80036; stroke-width: 1.0;"/><line style="stroke: #A80036; stroke-width: 1.0;" x1="212.5" x2="522" y1="216.2578" y2="216.2578"/><text fill="#000000" font-family="sans-serif" font-size="13" lengthAdjust="spacingAndGlyphs" textLength="61" x="224.5" y="211.1919">fig.show()</text><polygon fill="#A80036" points="76,241.3906,66,245.3906,76,249.3906,72,245.3906" style="stroke: #A80036; stroke-width: 1.0;"/><line style="stroke: #A80036; stroke-width: 1.0;" x1="70" x2="206.5" y1="245.3906" y2="245.3906"/><text fill="#000000" font-family="sans-serif" font-size="13" lengthAdjust="spacingAndGlyphs" textLength="107" x="82" y="240.3247">provide pie chart</text></g></svg>