<?xml version="1.0" encoding="UTF-8" standalone="no"?><svg xmlns="http://www.w3.org/2000/svg" xmlns:xlink="http://www.w3.org/1999/xlink" contentScriptType="application/ecmascript" contentStyleType="text/css" height="420px" preserveAspectRatio="none" style="width:837px;height:420px;" version="1.1" viewBox="0 0 837 420" width="837px" zoomAndPan="magnify"><defs><filter height="300%" id="fi5p82t0nykna" width="300%" x="-1" y="-1"><feGaussianBlur result="blurOut" stdDeviation="2.0"/><feColorMatrix in="blurOut" result="blurOut2" type="matrix" values="0 0 0 0 0 0 0 0 0 0 0 0 0 0 0 0 0 0 .4 0"/><feOffset dx="4.0" dy="4.0" in="blurOut2" result="blurOut3"/><feBlend in="SourceGraphic" in2="blurOut3" mode="normal"/></filter></defs><g><text fill="#000000" font-family="sans-serif" font-size="14" font-weight="bold" lengthAdjust="spacingAndGlyphs" textLength="441" x="198.5" y="22.9951">"Add crypto from Coinbase into portfolio" Process View</text><rect fill="#FFFFFF" filter="url(#fi5p82t0nykna)" height="219.7344" style="stroke: #000000; stroke-width: 2.0;" width="812" x="13" y="143.8594"/><rect fill="#FFFFFF" height="73.0703" style="stroke: none; stroke-width: 1.0;" width="812" x="13" y="290.5234"/><line style="stroke: #A80036; stroke-width: 1.0; stroke-dasharray: 5.0,5.0;" x1="80" x2="80" y1="68.5938" y2="380.5938"/><line style="stroke: #A80036; stroke-width: 1.0; stroke-dasharray: 5.0,5.0;" x1="283.5" x2="283.5" y1="68.5938" y2="380.5938"/><line style="stroke: #A80036; stroke-width: 1.0; stroke-dasharray: 5.0,5.0;" x1="652" x2="652" y1="68.5938" y2="380.5938"/><line style="stroke: #A80036; stroke-width: 1.0; stroke-dasharray: 5.0,5.0;" x1="773" x2="773" y1="68.5938" y2="380.5938"/><rect fill="#FEFECE" filter="url(#fi5p82t0nykna)" height="30.2969" style="stroke: #A80036; stroke-width: 1.5;" width="110" x="23" y="33.2969"/><text fill="#000000" font-family="sans-serif" font-size="14" lengthAdjust="spacingAndGlyphs" textLength="96" x="30" y="53.292">User Interface</text><rect fill="#FEFECE" filter="url(#fi5p82t0nykna)" height="30.2969" style="stroke: #A80036; stroke-width: 1.5;" width="110" x="23" y="379.5938"/><text fill="#000000" font-family="sans-serif" font-size="14" lengthAdjust="spacingAndGlyphs" textLength="96" x="30" y="399.5889">User Interface</text><rect fill="#FEFECE" filter="url(#fi5p82t0nykna)" height="30.2969" style="stroke: #A80036; stroke-width: 1.5;" width="147" x="208.5" y="33.2969"/><text fill="#000000" font-family="sans-serif" font-size="14" lengthAdjust="spacingAndGlyphs" textLength="133" x="215.5" y="53.292">Trading Aggregator</text><rect fill="#FEFECE" filter="url(#fi5p82t0nykna)" height="30.2969" style="stroke: #A80036; stroke-width: 1.5;" width="147" x="208.5" y="379.5938"/><text fill="#000000" font-family="sans-serif" font-size="14" lengthAdjust="spacingAndGlyphs" textLength="133" x="215.5" y="399.5889">Trading Aggregator</text><rect fill="#FEFECE" filter="url(#fi5p82t0nykna)" height="30.2969" style="stroke: #A80036; stroke-width: 1.5;" width="134" x="583" y="33.2969"/><text fill="#000000" font-family="sans-serif" font-size="14" lengthAdjust="spacingAndGlyphs" textLength="120" x="590" y="53.292">Trading platforms</text><rect fill="#FEFECE" filter="url(#fi5p82t0nykna)" height="30.2969" style="stroke: #A80036; stroke-width: 1.5;" width="134" x="583" y="379.5938"/><text fill="#000000" font-family="sans-serif" font-size="14" lengthAdjust="spacingAndGlyphs" textLength="120" x="590" y="399.5889">Trading platforms</text><rect fill="#FEFECE" filter="url(#fi5p82t0nykna)" height="30.2969" style="stroke: #A80036; stroke-width: 1.5;" width="80" x="731" y="33.2969"/><text fill="#000000" font-family="sans-serif" font-size="14" lengthAdjust="spacingAndGlyphs" textLength="66" x="738" y="53.292">Database</text><rect fill="#FEFECE" filter="url(#fi5p82t0nykna)" height="30.2969" style="stroke: #A80036; stroke-width: 1.5;" width="80" x="731" y="379.5938"/><text fill="#000000" font-family="sans-serif" font-size="14" lengthAdjust="spacingAndGlyphs" textLength="66" x="738" y="399.5889">Database</text><polygon fill="#A80036" points="272,95.7266,282,99.7266,272,103.7266,276,99.7266" style="stroke: #A80036; stroke-width: 1.0;"/><line style="stroke: #A80036; stroke-width: 1.0;" x1="80" x2="278" y1="99.7266" y2="99.7266"/><text fill="#000000" font-family="sans-serif" font-size="13" lengthAdjust="spacingAndGlyphs" textLength="69" x="87" y="94.6606">Add crypto</text><polygon fill="#A80036" points="640,124.8594,650,128.8594,640,132.8594,644,128.8594" style="stroke: #A80036; stroke-width: 1.0;"/><line style="stroke: #A80036; stroke-width: 1.0;" x1="284" x2="646" y1="128.8594" y2="128.8594"/><text fill="#000000" font-family="sans-serif" font-size="13" lengthAdjust="spacingAndGlyphs" textLength="344" x="291" y="123.7935">GET https://api.coinbase.com/v2/accounts/:account_id</text><path d="M13,143.8594 L77,143.8594 L77,150.8594 L67,160.8594 L13,160.8594 L13,143.8594 " fill="#EEEEEE" style="stroke: #000000; stroke-width: 1.0;"/><rect fill="none" height="219.7344" style="stroke: #000000; stroke-width: 2.0;" width="812" x="13" y="143.8594"/><text fill="#000000" font-family="sans-serif" font-size="13" font-weight="bold" lengthAdjust="spacingAndGlyphs" textLength="19" x="28" y="156.9263">alt</text><text fill="#000000" font-family="sans-serif" font-size="11" font-weight="bold" lengthAdjust="spacingAndGlyphs" textLength="177" x="92" y="156.0698">[request positive accepted]</text><polygon fill="#A80036" points="295,178.125,285,182.125,295,186.125,291,182.125" style="stroke: #A80036; stroke-width: 1.0;"/><line style="stroke: #A80036; stroke-width: 1.0;" x1="289" x2="651" y1="182.125" y2="182.125"/><text fill="#000000" font-family="sans-serif" font-size="13" lengthAdjust="spacingAndGlyphs" textLength="46" x="301" y="177.0591">200 OK</text><line style="stroke: #A80036; stroke-width: 1.0;" x1="284" x2="326" y1="211.2578" y2="211.2578"/><line style="stroke: #A80036; stroke-width: 1.0;" x1="326" x2="326" y1="211.2578" y2="224.2578"/><line style="stroke: #A80036; stroke-width: 1.0;" x1="285" x2="326" y1="224.2578" y2="224.2578"/><polygon fill="#A80036" points="295,220.2578,285,224.2578,295,228.2578,291,224.2578" style="stroke: #A80036; stroke-width: 1.0;"/><text fill="#000000" font-family="sans-serif" font-size="13" lengthAdjust="spacingAndGlyphs" textLength="73" x="291" y="206.1919">Adjust data</text><polygon fill="#A80036" points="761,249.3906,771,253.3906,761,257.3906,765,253.3906" style="stroke: #A80036; stroke-width: 1.0;"/><line style="stroke: #A80036; stroke-width: 1.0;" x1="284" x2="767" y1="253.3906" y2="253.3906"/><text fill="#000000" font-family="sans-serif" font-size="13" lengthAdjust="spacingAndGlyphs" textLength="196" x="291" y="248.3247">cursor.execute(adjusted_data)</text><polygon fill="#A80036" points="91,278.5234,81,282.5234,91,286.5234,87,282.5234" style="stroke: #A80036; stroke-width: 1.0;"/><line style="stroke: #A80036; stroke-width: 1.0;" x1="85" x2="283" y1="282.5234" y2="282.5234"/><text fill="#000000" font-family="sans-serif" font-size="13" lengthAdjust="spacingAndGlyphs" textLength="80" x="97" y="277.4575">Stock added</text><line style="stroke: #000000; stroke-width: 1.0; stroke-dasharray: 2.0,2.0;" x1="13" x2="825" y1="291.5234" y2="291.5234"/><text fill="#000000" font-family="sans-serif" font-size="11" font-weight="bold" lengthAdjust="spacingAndGlyphs" textLength="102" x="18" y="301.7339">[error message]</text><polygon fill="#A80036" points="295,322.4609,285,326.4609,295,330.4609,291,326.4609" style="stroke: #A80036; stroke-width: 1.0;"/><line style="stroke: #A80036; stroke-width: 1.0;" x1="289" x2="651" y1="326.4609" y2="326.4609"/><text fill="#000000" font-family="sans-serif" font-size="13" lengthAdjust="spacingAndGlyphs" textLength="87" x="301" y="321.395">request failed</text><polygon fill="#A80036" points="91,351.5938,81,355.5938,91,359.5938,87,355.5938" style="stroke: #A80036; stroke-width: 1.0;"/><line style="stroke: #A80036; stroke-width: 1.0;" x1="85" x2="283" y1="355.5938" y2="355.5938"/><text fill="#000000" font-family="sans-serif" font-size="13" lengthAdjust="spacingAndGlyphs" textLength="180" x="97" y="350.5278">Inform about error message</text></g></svg>