<?xml version="1.0" encoding="UTF-8" standalone="no"?><svg xmlns="http://www.w3.org/2000/svg" xmlns:xlink="http://www.w3.org/1999/xlink" contentScriptType="application/ecmascript" contentStyleType="text/css" height="404px" preserveAspectRatio="none" style="width:730px;height:404px;" version="1.1" viewBox="0 0 730 404" width="730px" zoomAndPan="magnify"><defs><filter height="300%" id="fme2lcu8e9wd3" width="300%" x="-1" y="-1"><feGaussianBlur result="blurOut" stdDeviation="2.0"/><feColorMatrix in="blurOut" result="blurOut2" type="matrix" values="0 0 0 0 0 0 0 0 0 0 0 0 0 0 0 0 0 0 .4 0"/><feOffset dx="4.0" dy="4.0" in="blurOut2" result="blurOut3"/><feBlend in="SourceGraphic" in2="blurOut3" mode="normal"/></filter></defs><g><text fill="#000000" font-family="sans-serif" font-size="14" font-weight="bold" lengthAdjust="spacingAndGlyphs" textLength="397" x="167.25" y="22.9951">"Convert portfolio from USD to EUR" Process View</text><line style="stroke: #A80036; stroke-width: 1.0; stroke-dasharray: 5.0,5.0;" x1="65" x2="65" y1="68.5938" y2="363.7891"/><line style="stroke: #A80036; stroke-width: 1.0; stroke-dasharray: 5.0,5.0;" x1="207" x2="207" y1="68.5938" y2="363.7891"/><line style="stroke: #A80036; stroke-width: 1.0; stroke-dasharray: 5.0,5.0;" x1="397.5" x2="397.5" y1="68.5938" y2="363.7891"/><line style="stroke: #A80036; stroke-width: 1.0; stroke-dasharray: 5.0,5.0;" x1="507.5" x2="507.5" y1="68.5938" y2="363.7891"/><line style="stroke: #A80036; stroke-width: 1.0; stroke-dasharray: 5.0,5.0;" x1="649.5" x2="649.5" y1="68.5938" y2="363.7891"/><rect fill="#FEFECE" filter="url(#fme2lcu8e9wd3)" height="30.2969" style="stroke: #A80036; stroke-width: 1.5;" width="110" x="8" y="33.2969"/><text fill="#000000" font-family="sans-serif" font-size="14" lengthAdjust="spacingAndGlyphs" textLength="96" x="15" y="53.292">User Interface</text><rect fill="#FEFECE" filter="url(#fme2lcu8e9wd3)" height="30.2969" style="stroke: #A80036; stroke-width: 1.5;" width="110" x="8" y="362.7891"/><text fill="#000000" font-family="sans-serif" font-size="14" lengthAdjust="spacingAndGlyphs" textLength="96" x="15" y="382.7842">User Interface</text><rect fill="#FEFECE" filter="url(#fme2lcu8e9wd3)" height="30.2969" style="stroke: #A80036; stroke-width: 1.5;" width="147" x="132" y="33.2969"/><text fill="#000000" font-family="sans-serif" font-size="14" lengthAdjust="spacingAndGlyphs" textLength="133" x="139" y="53.292">Trading Aggregator</text><rect fill="#FEFECE" filter="url(#fme2lcu8e9wd3)" height="30.2969" style="stroke: #A80036; stroke-width: 1.5;" width="147" x="132" y="362.7891"/><text fill="#000000" font-family="sans-serif" font-size="14" lengthAdjust="spacingAndGlyphs" textLength="133" x="139" y="382.7842">Trading Aggregator</text><rect fill="#FEFECE" filter="url(#fme2lcu8e9wd3)" height="30.2969" style="stroke: #A80036; stroke-width: 1.5;" width="80" x="355.5" y="33.2969"/><text fill="#000000" font-family="sans-serif" font-size="14" lengthAdjust="spacingAndGlyphs" textLength="66" x="362.5" y="53.292">Database</text><rect fill="#FEFECE" filter="url(#fme2lcu8e9wd3)" height="30.2969" style="stroke: #A80036; stroke-width: 1.5;" width="80" x="355.5" y="362.7891"/><text fill="#000000" font-family="sans-serif" font-size="14" lengthAdjust="spacingAndGlyphs" textLength="66" x="362.5" y="382.7842">Database</text><rect fill="#FEFECE" filter="url(#fme2lcu8e9wd3)" height="30.2969" style="stroke: #A80036; stroke-width: 1.5;" width="113" x="449.5" y="33.2969"/><text fill="#000000" font-family="sans-serif" font-size="14" lengthAdjust="spacingAndGlyphs" textLength="99" x="456.5" y="53.292">Exchange rate</text><rect fill="#FEFECE" filter="url(#fme2lcu8e9wd3)" height="30.2969" style="stroke: #A80036; stroke-width: 1.5;" width="113" x="449.5" y="362.7891"/><text fill="#000000" font-family="sans-serif" font-size="14" lengthAdjust="spacingAndGlyphs" textLength="99" x="456.5" y="382.7842">Exchange rate</text><rect fill="#FEFECE" filter="url(#fme2lcu8e9wd3)" height="30.2969" style="stroke: #A80036; stroke-width: 1.5;" width="143" x="576.5" y="33.2969"/><text fill="#000000" font-family="sans-serif" font-size="14" lengthAdjust="spacingAndGlyphs" textLength="129" x="583.5" y="53.292">Graph visualization</text><rect fill="#FEFECE" filter="url(#fme2lcu8e9wd3)" height="30.2969" style="stroke: #A80036; stroke-width: 1.5;" width="143" x="576.5" y="362.7891"/><text fill="#000000" font-family="sans-serif" font-size="14" lengthAdjust="spacingAndGlyphs" textLength="129" x="583.5" y="382.7842">Graph visualization</text><polygon fill="#A80036" points="195.5,95.7266,205.5,99.7266,195.5,103.7266,199.5,99.7266" style="stroke: #A80036; stroke-width: 1.0;"/><line style="stroke: #A80036; stroke-width: 1.0;" x1="65" x2="201.5" y1="99.7266" y2="99.7266"/><text fill="#000000" font-family="sans-serif" font-size="13" lengthAdjust="spacingAndGlyphs" textLength="70" x="72" y="94.6606">Select EUR</text><polygon fill="#A80036" points="385.5,124.8594,395.5,128.8594,385.5,132.8594,389.5,128.8594" style="stroke: #A80036; stroke-width: 1.0;"/><line style="stroke: #A80036; stroke-width: 1.0;" x1="207.5" x2="391.5" y1="128.8594" y2="128.8594"/><text fill="#000000" font-family="sans-serif" font-size="13" lengthAdjust="spacingAndGlyphs" textLength="166" x="214.5" y="123.7935">cursor.execute(sql_query)</text><polygon fill="#A80036" points="218.5,153.9922,208.5,157.9922,218.5,161.9922,214.5,157.9922" style="stroke: #A80036; stroke-width: 1.0;"/><line style="stroke: #A80036; stroke-width: 1.0;" x1="212.5" x2="396.5" y1="157.9922" y2="157.9922"/><text fill="#000000" font-family="sans-serif" font-size="13" lengthAdjust="spacingAndGlyphs" textLength="100" x="224.5" y="152.9263">cursor.fetchall()</text><polygon fill="#A80036" points="496,183.125,506,187.125,496,191.125,500,187.125" style="stroke: #A80036; stroke-width: 1.0;"/><line style="stroke: #A80036; stroke-width: 1.0;" x1="207.5" x2="502" y1="187.125" y2="187.125"/><text fill="#000000" font-family="sans-serif" font-size="13" lengthAdjust="spacingAndGlyphs" textLength="100" x="214.5" y="182.0591">request.get(url)</text><polygon fill="#A80036" points="218.5,212.2578,208.5,216.2578,218.5,220.2578,214.5,216.2578" style="stroke: #A80036; stroke-width: 1.0;"/><line style="stroke: #A80036; stroke-width: 1.0;" x1="212.5" x2="507" y1="216.2578" y2="216.2578"/><text fill="#000000" font-family="sans-serif" font-size="13" lengthAdjust="spacingAndGlyphs" textLength="99" x="224.5" y="211.1919">response.json()</text><line style="stroke: #A80036; stroke-width: 1.0;" x1="207.5" x2="249.5" y1="245.3906" y2="245.3906"/><line style="stroke: #A80036; stroke-width: 1.0;" x1="249.5" x2="249.5" y1="245.3906" y2="258.3906"/><line style="stroke: #A80036; stroke-width: 1.0;" x1="208.5" x2="249.5" y1="258.3906" y2="258.3906"/><polygon fill="#A80036" points="218.5,254.3906,208.5,258.3906,218.5,262.3906,214.5,258.3906" style="stroke: #A80036; stroke-width: 1.0;"/><text fill="#000000" font-family="sans-serif" font-size="13" lengthAdjust="spacingAndGlyphs" textLength="90" x="214.5" y="240.3247">convert prices</text><polygon fill="#A80036" points="638,283.5234,648,287.5234,638,291.5234,642,287.5234" style="stroke: #A80036; stroke-width: 1.0;"/><line style="stroke: #A80036; stroke-width: 1.0;" x1="207.5" x2="644" y1="287.5234" y2="287.5234"/><text fill="#000000" font-family="sans-serif" font-size="13" lengthAdjust="spacingAndGlyphs" textLength="77" x="214.5" y="282.4575">px.pie(data)</text><polygon fill="#A80036" points="218.5,312.6563,208.5,316.6563,218.5,320.6563,214.5,316.6563" style="stroke: #A80036; stroke-width: 1.0;"/><line style="stroke: #A80036; stroke-width: 1.0;" x1="212.5" x2="649" y1="316.6563" y2="316.6563"/><text fill="#000000" font-family="sans-serif" font-size="13" lengthAdjust="spacingAndGlyphs" textLength="61" x="224.5" y="311.5903">fig.show()</text><polygon fill="#A80036" points="76,341.7891,66,345.7891,76,349.7891,72,345.7891" style="stroke: #A80036; stroke-width: 1.0;"/><line style="stroke: #A80036; stroke-width: 1.0;" x1="70" x2="206.5" y1="345.7891" y2="345.7891"/><text fill="#000000" font-family="sans-serif" font-size="13" lengthAdjust="spacingAndGlyphs" textLength="107" x="82" y="340.7231">provide pie chart</text></g></svg>