<?xml version="1.0" encoding="UTF-8" standalone="no"?><svg xmlns="http://www.w3.org/2000/svg" xmlns:xlink="http://www.w3.org/1999/xlink" contentScriptType="application/ecmascript" contentStyleType="text/css" height="620px" preserveAspectRatio="none" style="width:1862px;height:620px;" version="1.1" viewBox="0 0 1862 620" width="1862px" zoomAndPan="magnify"><defs/><g><polygon fill="#FFFFFF" points="500,146,510,136,863,136,863,268,853,278,500,278,500,146" style="stroke: #000000; stroke-width: 1.5;"/><line style="stroke: #000000; stroke-width: 1.5;" x1="853" x2="862" y1="146" y2="137"/><line style="stroke: #000000; stroke-width: 1.5;" x1="500" x2="853" y1="146" y2="146"/><line style="stroke: #000000; stroke-width: 1.5;" x1="853" x2="853" y1="146" y2="278"/><text fill="#000000" font-family="Courier" font-size="14" font-weight="bold" lengthAdjust="spacingAndGlyphs" textLength="240" x="557.5" y="161.9951">&lt;&lt;device&gt;&gt; :Application Server</text><polygon fill="#FFFFFF" points="98,476,108,466,453,466,453,598,443,608,98,608,98,476" style="stroke: #000000; stroke-width: 1.5;"/><line style="stroke: #000000; stroke-width: 1.5;" x1="443" x2="452" y1="476" y2="467"/><line style="stroke: #000000; stroke-width: 1.5;" x1="98" x2="443" y1="476" y2="476"/><line style="stroke: #000000; stroke-width: 1.5;" x1="443" x2="443" y1="476" y2="608"/><text fill="#000000" font-family="Courier" font-size="14" font-weight="bold" lengthAdjust="spacingAndGlyphs" textLength="160" x="191.5" y="491.9951">&lt;&lt;device&gt;&gt; :ClientPC</text><polygon fill="#FFFFFF" points="903,146,913,136,1840,136,1840,268,1830,278,903,278,903,146" style="stroke: #000000; stroke-width: 1.5;"/><line style="stroke: #000000; stroke-width: 1.5;" x1="1830" x2="1839" y1="146" y2="137"/><line style="stroke: #000000; stroke-width: 1.5;" x1="903" x2="1830" y1="146" y2="146"/><line style="stroke: #000000; stroke-width: 1.5;" x1="1830" x2="1830" y1="146" y2="278"/><text fill="#000000" font-family="Courier" font-size="14" font-weight="bold" lengthAdjust="spacingAndGlyphs" textLength="136" x="1299.5" y="161.9951">Trading platforms</text><polygon fill="#FFFFFF" points="543,218,553,208,839,208,839,244.2969,829,254.2969,543,254.2969,543,218" style="stroke: #000000; stroke-width: 1.5;"/><line style="stroke: #000000; stroke-width: 1.5;" x1="829" x2="838" y1="218" y2="209"/><line style="stroke: #000000; stroke-width: 1.5;" x1="543" x2="829" y1="218" y2="218"/><line style="stroke: #000000; stroke-width: 1.5;" x1="829" x2="829" y1="218" y2="254.2969"/><text fill="#000000" font-family="Courier" font-size="14" lengthAdjust="spacingAndGlyphs" textLength="256" x="558" y="240.9951">«executionenvironment» :PythonVM</text><polygon fill="#FFFFFF" points="6,359,16,349,206,349,206,385.2969,196,395.2969,6,395.2969,6,359" style="stroke: #000000; stroke-width: 1.5;"/><line style="stroke: #000000; stroke-width: 1.5;" x1="196" x2="205" y1="359" y2="350"/><line style="stroke: #000000; stroke-width: 1.5;" x1="6" x2="196" y1="359" y2="359"/><line style="stroke: #000000; stroke-width: 1.5;" x1="196" x2="196" y1="359" y2="395.2969"/><text fill="#000000" font-family="Courier" font-size="14" lengthAdjust="spacingAndGlyphs" textLength="160" x="21" y="381.9951">«device» :Web Server</text><polygon fill="#FFFFFF" points="141,548,151,538,429,538,429,574.2969,419,584.2969,141,584.2969,141,548" style="stroke: #000000; stroke-width: 1.5;"/><line style="stroke: #000000; stroke-width: 1.5;" x1="419" x2="428" y1="548" y2="539"/><line style="stroke: #000000; stroke-width: 1.5;" x1="141" x2="419" y1="548" y2="548"/><line style="stroke: #000000; stroke-width: 1.5;" x1="419" x2="419" y1="548" y2="584.2969"/><text fill="#000000" font-family="Courier" font-size="14" lengthAdjust="spacingAndGlyphs" textLength="248" x="156" y="570.9951">«executionenvironment» :Browser</text><polygon fill="#FFFFFF" points="241,359,251,349,481,349,481,385.2969,471,395.2969,241,395.2969,241,359" style="stroke: #000000; stroke-width: 1.5;"/><line style="stroke: #000000; stroke-width: 1.5;" x1="471" x2="480" y1="359" y2="350"/><line style="stroke: #000000; stroke-width: 1.5;" x1="241" x2="471" y1="359" y2="359"/><line style="stroke: #000000; stroke-width: 1.5;" x1="471" x2="471" y1="359" y2="395.2969"/><text fill="#000000" font-family="Courier" font-size="14" lengthAdjust="spacingAndGlyphs" textLength="200" x="256" y="381.9951">«device» :Database Server</text><polygon fill="#FFFFFF" points="516,359,526,349,796,349,796,385.2969,786,395.2969,516,395.2969,516,359" style="stroke: #000000; stroke-width: 1.5;"/><line style="stroke: #000000; stroke-width: 1.5;" x1="786" x2="795" y1="359" y2="350"/><line style="stroke: #000000; stroke-width: 1.5;" x1="516" x2="786" y1="359" y2="359"/><line style="stroke: #000000; stroke-width: 1.5;" x1="786" x2="786" y1="359" y2="395.2969"/><text fill="#000000" font-family="Courier" font-size="14" lengthAdjust="spacingAndGlyphs" textLength="240" x="531" y="381.9951">«device» :Exchange Rate Server</text><polygon fill="#FFFFFF" points="758,548,768,538,974,538,974,574.2969,964,584.2969,758,584.2969,758,548" style="stroke: #000000; stroke-width: 1.5;"/><line style="stroke: #000000; stroke-width: 1.5;" x1="964" x2="973" y1="548" y2="539"/><line style="stroke: #000000; stroke-width: 1.5;" x1="758" x2="964" y1="548" y2="548"/><line style="stroke: #000000; stroke-width: 1.5;" x1="964" x2="964" y1="548" y2="584.2969"/><text fill="#000000" font-family="Courier" font-size="14" lengthAdjust="spacingAndGlyphs" textLength="176" x="773" y="570.9951">«device» :Gmail Server</text><polygon fill="#FFFFFF" points="1584,218,1594,208,1816,208,1816,244.2969,1806,254.2969,1584,254.2969,1584,218" style="stroke: #000000; stroke-width: 1.5;"/><line style="stroke: #000000; stroke-width: 1.5;" x1="1806" x2="1815" y1="218" y2="209"/><line style="stroke: #000000; stroke-width: 1.5;" x1="1584" x2="1806" y1="218" y2="218"/><line style="stroke: #000000; stroke-width: 1.5;" x1="1806" x2="1806" y1="218" y2="254.2969"/><text fill="#000000" font-family="Courier" font-size="14" lengthAdjust="spacingAndGlyphs" textLength="192" x="1599" y="240.9951">«device» :Binance Server</text><polygon fill="#FFFFFF" points="1309,218,1319,208,1549,208,1549,244.2969,1539,254.2969,1309,254.2969,1309,218" style="stroke: #000000; stroke-width: 1.5;"/><line style="stroke: #000000; stroke-width: 1.5;" x1="1539" x2="1548" y1="218" y2="209"/><line style="stroke: #000000; stroke-width: 1.5;" x1="1309" x2="1539" y1="218" y2="218"/><line style="stroke: #000000; stroke-width: 1.5;" x1="1539" x2="1539" y1="218" y2="254.2969"/><text fill="#000000" font-family="Courier" font-size="14" lengthAdjust="spacingAndGlyphs" textLength="200" x="1324" y="240.9951">«device» :Coinbase Server</text><polygon fill="#FFFFFF" points="946,218,956,208,1274,208,1274,244.2969,1264,254.2969,946,254.2969,946,218" style="stroke: #000000; stroke-width: 1.5;"/><line style="stroke: #000000; stroke-width: 1.5;" x1="1264" x2="1273" y1="218" y2="209"/><line style="stroke: #000000; stroke-width: 1.5;" x1="946" x2="1264" y1="218" y2="218"/><line style="stroke: #000000; stroke-width: 1.5;" x1="1264" x2="1264" y1="218" y2="254.2969"/><text fill="#000000" font-family="Courier" font-size="14" lengthAdjust="spacingAndGlyphs" textLength="288" x="961" y="240.9951">«device» :Interactive Brokers Server</text><path d="M499.6147,234.9033 C499.4321,234.9663 499.2468,235.0304 499.0587,235.0954 C498.3063,235.3555 497.5097,235.6309 496.6701,235.9211 C489.9533,238.243 480.4854,241.5163 468.9033,245.5208 C445.7391,253.5297 414.1181,264.4631 379.1363,276.5588 C309.1725,300.75 225.765,329.59 169.68,348.98 " fill="none" id="appnode-webnode" style="stroke: #A80036; stroke-width: 1.0;"/><text fill="#000000" font-family="Courier" font-size="13" lengthAdjust="spacingAndGlyphs" textLength="80" x="296" y="315.0669">«internet»</text><path d="M106,395.19 C106,407.38 106,423.5513 106,441.0061 C106,445.3698 106,449.8137 106,454.2957 C106,456.5368 106,458.7873 106,461.042 C106,462.1694 106,463.2979 106,464.4267 C106,464.709 106,464.9912 106,465.2734 " fill="none" id="webnode-usernode" style="stroke: #A80036; stroke-width: 1.0;"/><text fill="#000000" font-family="Courier" font-size="13" lengthAdjust="spacingAndGlyphs" textLength="80" x="107" y="438.0669">«internet»</text><path d="M516.5546,135.9097 C516.7455,135.6152 516.939,135.3224 517.1351,135.0313 C517.5273,134.4493 517.93,133.8744 518.3435,133.3071 C519.1704,132.1725 520.0404,131.0682 520.9554,129.9974 C522.7853,127.8558 524.795,125.8481 527,124 C554.93,100.59 823.82,105.13 855,124 C876.885,137.245 890.63,162.1675 899.0225,184.6288 C900.0716,187.4364 901.037,190.2056 901.9242,192.9087 C902.146,193.5845 902.363,194.2562 902.5751,194.9233 C902.6811,195.2568 902.786,195.5892 902.8897,195.9204 " fill="none" id="appnode-platformsnode" style="stroke: #A80036; stroke-width: 1.0;"/><text fill="#000000" font-family="Courier" font-size="13" lengthAdjust="spacingAndGlyphs" textLength="56" x="681" y="108.0669">«HTTPS»</text><path d="M515.2609,278.1759 C515.3065,278.2755 515.3523,278.3749 515.3984,278.4741 C515.5829,278.8713 515.7717,279.2661 515.965,279.6584 C516.3517,280.4431 516.7563,281.2178 517.1796,281.9804 C518.0263,283.5058 518.948,284.9833 519.9513,286.3975 C521.9577,289.2259 524.29,291.8013 527,294 C542.42,306.51 596.4,298.81 616,302 C705.27,316.53 749.77,285.32 814,349 C865.98,400.53 869.04,495.13 867.47,537.93 " fill="none" id="appnode-gmailnode" style="stroke: #A80036; stroke-width: 1.0;"/><text fill="#000000" font-family="Courier" font-size="13" lengthAdjust="spacingAndGlyphs" textLength="56" x="845" y="376.5669">«HTTPS»</text><path d="M517.9096,278.1813 C517.9533,278.2841 517.9972,278.3869 518.0413,278.4896 C518.1295,278.6951 518.2185,278.9002 518.3082,279.105 C518.4878,279.5146 518.6704,279.923 518.8561,280.3298 C519.5992,281.9573 520.3929,283.5609 521.2404,285.1284 C522.9355,288.2634 524.8463,291.2537 527,294 C545.91,318.12 574.64,336.32 600.19,348.95 " fill="none" id="appnode-exchangenode" style="stroke: #A80036; stroke-width: 1.0;"/><text fill="#000000" font-family="Courier" font-size="13" lengthAdjust="spacingAndGlyphs" textLength="56" x="551" y="315.0669">«HTTPS»</text><path d="M499.9983,239.563 C499.5895,239.9495 499.1669,240.3492 498.7309,240.7614 C496.9871,242.4105 495.0294,244.2619 492.8861,246.2888 C484.3128,254.3963 472.7694,265.3125 460.0613,277.33 C434.645,301.365 404.57,329.805 384.28,348.99 " fill="none" id="appnode-dbservernode" style="stroke: #A80036; stroke-width: 1.0;"/><text fill="#000000" font-family="Courier" font-size="13" lengthAdjust="spacingAndGlyphs" textLength="80" x="432" y="315.0669">«internet»</text></g></svg>