<svg xmlns="http://www.w3.org/2000/svg" version="1.1" xmlns:xlink="http://www.w3.org/1999/xlink" xmlns:svgjs="http://svgjs.dev/svgjs" viewBox="0 0 2220 490"><rect width="210" height="40" x="1617.5" y="0" fill="white" stroke="black"></rect><text x="1651.33984375" y="26.20703125" svgjs:data="{&quot;leading&quot;:&quot;1.3&quot;}"><tspan dy="0" x="1651.33984375" svgjs:data="{&quot;newLined&quot;:true}">Trading aggregator</tspan></text><rect width="140" height="40" x="677.5" y="90" fill="white" stroke="black"></rect><text x="709.96875" y="116.20703125" svgjs:data="{&quot;leading&quot;:&quot;1.3&quot;}"><tspan dy="0" x="709.96875" svgjs:data="{&quot;newLined&quot;:true}">Price alert</tspan></text><rect width="100" height="40" x="165" y="270" fill="white" stroke="black"></rect><text x="188.29296875" y="296.20703125" svgjs:data="{&quot;leading&quot;:&quot;1.3&quot;}"><tspan dy="0" x="188.29296875" svgjs:data="{&quot;newLined&quot;:true}">1 Stock</tspan></text><rect width="190" height="40" x="705" y="270" fill="white" stroke="black"></rect><text x="735.95703125" y="296.20703125" svgjs:data="{&quot;leading&quot;:&quot;1.3&quot;}"><tspan dy="0" x="735.95703125" svgjs:data="{&quot;newLined&quot;:true}">1 Cryptocurrency</tspan></text><rect width="180" height="40" x="315" y="270" fill="white" stroke="black"></rect><text x="348.2109375" y="296.20703125" svgjs:data="{&quot;leading&quot;:&quot;1.3&quot;}"><tspan dy="0" x="348.2109375" svgjs:data="{&quot;newLined&quot;:true}">Selected stocks</tspan></text><rect width="280" height="40" x="970" y="270" fill="white" stroke="black"></rect><text x="1014.05859375" y="296.20703125" svgjs:data="{&quot;leading&quot;:&quot;1.3&quot;}"><tspan dy="0" x="1014.05859375" svgjs:data="{&quot;newLined&quot;:true}">Selected cryptocurrencies</tspan></text><rect width="120" height="40" x="1145" y="180" fill="white" stroke="black"></rect><text x="1172.83984375" y="206.20703125" svgjs:data="{&quot;leading&quot;:&quot;1.3&quot;}"><tspan dy="0" x="1172.83984375" svgjs:data="{&quot;newLined&quot;:true}">Portfolio</tspan></text><rect width="110" height="40" x="12.5" y="90" fill="white" stroke="black"></rect><text x="33.7734375" y="116.20703125" svgjs:data="{&quot;leading&quot;:&quot;1.3&quot;}"><tspan dy="0" x="33.7734375" svgjs:data="{&quot;newLined&quot;:true}">Currency</tspan></text><rect width="70" height="40" x="0" y="180" fill="white" stroke="black"></rect><text x="17.54296875" y="206.20703125" svgjs:data="{&quot;leading&quot;:&quot;1.3&quot;}"><tspan dy="0" x="17.54296875" svgjs:data="{&quot;newLined&quot;:true}">Euro</tspan></text><rect width="60" height="40" x="120" y="180" fill="white" stroke="black"></rect><text x="133.953125" y="206.20703125" svgjs:data="{&quot;leading&quot;:&quot;1.3&quot;}"><tspan dy="0" x="133.953125" svgjs:data="{&quot;newLined&quot;:true}">USD</tspan></text><rect width="150" height="40" x="1430" y="180" fill="white" stroke="black"></rect><text x="1461.70703125" y="206.20703125" svgjs:data="{&quot;leading&quot;:&quot;1.3&quot;}"><tspan dy="0" x="1461.70703125" svgjs:data="{&quot;newLined&quot;:true}">Notification</tspan></text><rect width="80" height="40" x="1630" y="270" fill="white" stroke="black"></rect><text x="1649.61328125" y="296.20703125" svgjs:data="{&quot;leading&quot;:&quot;1.3&quot;}"><tspan dy="0" x="1649.61328125" svgjs:data="{&quot;newLined&quot;:true}">Email</tspan></text><rect width="110" height="40" x="1760" y="270" fill="white" stroke="black"></rect><text x="1776.7265625" y="296.20703125" svgjs:data="{&quot;leading&quot;:&quot;1.3&quot;}"><tspan dy="0" x="1776.7265625" svgjs:data="{&quot;newLined&quot;:true}">WhatsApp</tspan></text><rect width="160" height="40" x="1850" y="90" fill="white" stroke="black"></rect><text x="1883.2109375" y="116.20703125" svgjs:data="{&quot;leading&quot;:&quot;1.3&quot;}"><tspan dy="0" x="1883.2109375" svgjs:data="{&quot;newLined&quot;:true}">Visualization</tspan></text><rect width="90" height="40" x="1787.5" y="180" fill="white" stroke="black"></rect><text x="1812.1796875" y="206.20703125" svgjs:data="{&quot;leading&quot;:&quot;1.3&quot;}"><tspan dy="0" x="1812.1796875" svgjs:data="{&quot;newLined&quot;:true}">Static</tspan></text><rect width="100" height="40" x="1952.5" y="180" fill="white" stroke="black"></rect><text x="1970.00390625" y="206.20703125" svgjs:data="{&quot;leading&quot;:&quot;1.3&quot;}"><tspan dy="0" x="1970.00390625" svgjs:data="{&quot;newLined&quot;:true}">Dynamic</tspan></text><rect width="80" height="40" x="2140" y="180" fill="white" stroke="black"></rect><text x="2156.6484375" y="206.20703125" svgjs:data="{&quot;leading&quot;:&quot;1.3&quot;}"><tspan dy="0" x="2156.6484375" svgjs:data="{&quot;newLined&quot;:true}">Graph</tspan></text><rect width="130" height="40" x="1920" y="270" fill="white" stroke="black"></rect><text x="1943.99609375" y="296.20703125" svgjs:data="{&quot;leading&quot;:&quot;1.3&quot;}"><tspan dy="0" x="1943.99609375" svgjs:data="{&quot;newLined&quot;:true}">Line Graph</tspan></text><rect width="120" height="40" x="2100" y="270" fill="white" stroke="black"></rect><text x="2126.09765625" y="296.20703125" svgjs:data="{&quot;leading&quot;:&quot;1.3&quot;}"><tspan dy="0" x="2126.09765625" svgjs:data="{&quot;newLined&quot;:true}">Pie Chart</tspan></text><rect width="190" height="40" x="1390" y="270" fill="white" stroke="black"></rect><text x="1422.11328125" y="296.20703125" svgjs:data="{&quot;leading&quot;:&quot;1.3&quot;}"><tspan dy="0" x="1422.11328125" svgjs:data="{&quot;newLined&quot;:true}">Trading platform</tspan></text><rect width="170" height="40" x="1025" y="360" fill="white" stroke="black"></rect><text x="1052.609375" y="386.20703125" svgjs:data="{&quot;leading&quot;:&quot;1.3&quot;}"><tspan dy="0" x="1052.609375" svgjs:data="{&quot;newLined&quot;:true}">Cryptocurrency</tspan></text><rect width="110" height="40" x="940" y="450" fill="white" stroke="black"></rect><text x="960.53125" y="476.20703125" svgjs:data="{&quot;leading&quot;:&quot;1.3&quot;}"><tspan dy="0" x="960.53125" svgjs:data="{&quot;newLined&quot;:true}">Coinbase</tspan></text><rect width="100" height="40" x="1100" y="450" fill="white" stroke="black"></rect><text x="1120.2265625" y="476.20703125" svgjs:data="{&quot;leading&quot;:&quot;1.3&quot;}"><tspan dy="0" x="1120.2265625" svgjs:data="{&quot;newLined&quot;:true}">Binance</tspan></text><rect width="90" height="40" x="1250" y="450" fill="white" stroke="black"></rect><text x="1268.77734375" y="476.20703125" svgjs:data="{&quot;leading&quot;:&quot;1.3&quot;}"><tspan dy="0" x="1268.77734375" svgjs:data="{&quot;newLined&quot;:true}">Kraken</tspan></text><rect width="70" height="40" x="1390" y="450" fill="white" stroke="black"></rect><text x="1411.75" y="476.20703125" svgjs:data="{&quot;leading&quot;:&quot;1.3&quot;}"><tspan dy="0" x="1411.75" svgjs:data="{&quot;newLined&quot;:true}">etc.</tspan></text><rect width="80" height="40" x="367.5" y="360" fill="white" stroke="black"></rect><text x="387.4453125" y="386.20703125" svgjs:data="{&quot;leading&quot;:&quot;1.3&quot;}"><tspan dy="0" x="387.4453125" svgjs:data="{&quot;newLined&quot;:true}">Stock</tspan></text><rect width="210" height="40" x="50" y="450" fill="white" stroke="black"></rect><text x="86.62890625" y="476.20703125" svgjs:data="{&quot;leading&quot;:&quot;1.3&quot;}"><tspan dy="0" x="86.62890625" svgjs:data="{&quot;newLined&quot;:true}">InteractiveBrokers</tspan></text><rect width="110" height="40" x="310" y="450" fill="white" stroke="black"></rect><text x="338.5546875" y="476.20703125" svgjs:data="{&quot;leading&quot;:&quot;1.3&quot;}"><tspan dy="0" x="338.5546875" svgjs:data="{&quot;newLined&quot;:true}">Fidelity</tspan></text><rect width="120" height="40" x="470" y="450" fill="white" stroke="black"></rect><text x="488.91015625" y="476.20703125" svgjs:data="{&quot;leading&quot;:&quot;1.3&quot;}"><tspan dy="0" x="488.91015625" svgjs:data="{&quot;newLined&quot;:true}">Robinhood</tspan></text><rect width="130" height="40" x="640" y="450" fill="white" stroke="black"></rect><text x="662.91796875" y="476.20703125" svgjs:data="{&quot;leading&quot;:&quot;1.3&quot;}"><tspan dy="0" x="662.91796875" svgjs:data="{&quot;newLined&quot;:true}">Trading212</tspan></text><rect width="70" height="40" x="820" y="450" fill="white" stroke="black"></rect><text x="841.75" y="476.20703125" svgjs:data="{&quot;leading&quot;:&quot;1.3&quot;}"><tspan dy="0" x="841.75" svgjs:data="{&quot;newLined&quot;:true}">etc.</tspan></text><polygon points="817.5,140 747.5,131 677.5,140" fill="black" stroke="black"></polygon><polygon points="104.16666666666666,140 78.61111111111111,131 53.05555555555556,140" fill="black" stroke="black"></polygon><polygon points="1525,230 1498.888888888889,221 1472.7777777777778,230" fill="black" stroke="black"></polygon><polygon points="1962.2222222222222,140 1924.4444444444443,131 1886.6666666666667,140" fill="black" stroke="black"></polygon><polygon points="2180,230 2164.4444444444443,221 2148.8888888888887,230" fill="black" stroke="black"></polygon><polygon points="1489.4444444444443,320 1439.7222222222222,311 1390,320" fill="black" stroke="black"></polygon><polygon points="1195,410 1126.9444444444443,401 1058.888888888889,410" fill="black" stroke="black"></polygon><polygon points="447.5,410 407.5,401 367.5,410" fill="black" stroke="black"></polygon><polyline points="677.5,140 215,155 215,200 215,245 215,270" stroke="black" fill="none"></polyline><polyline points="770.8333333333334,140 800,155 800,200 800,245 800,270" stroke="black" fill="none"></polyline><polyline points="677.5,140 405,155 405,200 405,245 405,270" stroke="black" fill="none"></polyline><polyline points="817.5,140 1300,155 1300,200 1300,245 1194.4444444444443,270" stroke="black" fill="none"></polyline><polyline points="817.5,140 1205,155 1205,180" stroke="black" fill="none"></polyline><polyline points="1617.5,24.846153846153847 747.5,65 747.5,90" stroke="black" fill="none" marker-end="url(#SvgjsMarker1000)"></polyline><defs><marker markerWidth="14" markerHeight="14" refX="7" refY="7" viewBox="0 0 14 14" orient="auto" id="SvgjsMarker1000"><circle r="5" cx="7" cy="7" fill="white" stroke-width="2" stroke="black"></circle></marker><marker markerWidth="14" markerHeight="14" refX="7" refY="7" viewBox="0 0 14 14" orient="auto" id="SvgjsMarker1001"><circle r="5" cx="7" cy="7" fill="black" stroke-width="2" stroke="black"></circle></marker><marker markerWidth="14" markerHeight="14" refX="7" refY="7" viewBox="0 0 14 14" orient="auto" id="SvgjsMarker1002"><circle r="5" cx="7" cy="7" fill="white" stroke-width="2" stroke="black"></circle></marker><marker markerWidth="14" markerHeight="14" refX="7" refY="7" viewBox="0 0 14 14" orient="auto" id="SvgjsMarker1003"><circle r="5" cx="7" cy="7" fill="black" stroke-width="2" stroke="black"></circle></marker><marker markerWidth="14" markerHeight="14" refX="7" refY="7" viewBox="0 0 14 14" orient="auto" id="SvgjsMarker1004"><circle r="5" cx="7" cy="7" fill="black" stroke-width="2" stroke="black"></circle></marker><marker markerWidth="14" markerHeight="14" refX="7" refY="7" viewBox="0 0 14 14" orient="auto" id="SvgjsMarker1005"><circle r="5" cx="7" cy="7" fill="black" stroke-width="2" stroke="black"></circle></marker><marker markerWidth="14" markerHeight="14" refX="7" refY="7" viewBox="0 0 14 14" orient="auto" id="SvgjsMarker1006"><polygon points="0,14 7,7 0,0 2,7" fill="black" stroke-width="1" stroke="black"></polygon></marker><marker markerWidth="14" markerHeight="14" refX="7" refY="7" viewBox="0 0 14 14" orient="auto" id="SvgjsMarker1007"><polygon points="0,14 7,7 0,0 2,7" fill="black" stroke-width="1" stroke="black"></polygon></marker><marker markerWidth="14" markerHeight="14" refX="7" refY="7" viewBox="0 0 14 14" orient="auto" id="SvgjsMarker1008"><polygon points="0,14 7,7 0,0 2,7" fill="black" stroke-width="1" stroke="black"></polygon></marker><marker markerWidth="14" markerHeight="14" refX="7" refY="7" viewBox="0 0 14 14" orient="auto" id="SvgjsMarker1009"><polygon points="0,14 7,7 0,0 2,7" fill="black" stroke-width="1" stroke="black"></polygon></marker><marker markerWidth="14" markerHeight="14" refX="7" refY="7" viewBox="0 0 14 14" orient="auto" id="SvgjsMarker1010"><polygon points="0,14 7,7 0,0 2,7" fill="black" stroke-width="1" stroke="black"></polygon></marker><marker markerWidth="14" markerHeight="14" refX="7" refY="7" viewBox="0 0 14 14" orient="auto" id="SvgjsMarker1011"><polygon points="0,14 7,7 0,0 2,7" fill="black" stroke-width="1" stroke="black"></polygon></marker><marker markerWidth="14" markerHeight="14" refX="7" refY="7" viewBox="0 0 14 14" orient="auto" id="SvgjsMarker1012"><polygon points="0,14 7,7 0,0 2,7" fill="black" stroke-width="1" stroke="black"></polygon></marker><marker markerWidth="14" markerHeight="14" refX="7" refY="7" viewBox="0 0 14 14" orient="auto" id="SvgjsMarker1013"><polygon points="0,14 7,7 0,0 2,7" fill="black" stroke-width="1" stroke="black"></polygon></marker><marker markerWidth="14" markerHeight="14" refX="7" refY="7" viewBox="0 0 14 14" orient="auto" id="SvgjsMarker1014"><polygon points="0,14 7,7 0,0 2,7" fill="black" stroke-width="1" stroke="black"></polygon></marker><marker markerWidth="14" markerHeight="14" refX="7" refY="7" viewBox="0 0 14 14" orient="auto" id="SvgjsMarker1015"><polygon points="14,0 7,7 14,14 12,7" fill="black" stroke-width="1" stroke="black"></polygon></marker><marker markerWidth="14" markerHeight="14" refX="7" refY="7" viewBox="0 0 14 14" orient="auto" id="SvgjsMarker1016"><polygon points="0,14 7,7 0,0 2,7" fill="black" stroke-width="1" stroke="black"></polygon></marker><marker markerWidth="14" markerHeight="14" refX="7" refY="7" viewBox="0 0 14 14" orient="auto" id="SvgjsMarker1017"><polygon points="14,0 7,7 14,14 12,7" fill="black" stroke-width="1" stroke="black"></polygon></marker></defs><polyline points="53.05555555555556,140 35,155 35,180" stroke="black" fill="none"></polyline><polyline points="104.16666666666666,140 150,155 150,180" stroke="black" fill="none"></polyline><polyline points="1617.5,22.854984894259818 67.5,65 67.5,90" stroke="black" fill="none" marker-end="url(#SvgjsMarker1001)"></polyline><polyline points="1472.7777777777778,230 1432.5,245 1630,282.42105263157896" stroke="black" fill="none"></polyline><polyline points="1525,230 1550,245 1760,280.66037735849056" stroke="black" fill="none"></polyline><polyline points="1732.5,40 1745,65 1745,110 1745,155 1580,185.9375" stroke="black" fill="none" marker-end="url(#SvgjsMarker1002)"></polyline><polyline points="1886.6666666666667,140 1832.5,155 1832.5,180" stroke="black" fill="none"></polyline><polyline points="1962.2222222222222,140 2002.5,155 2002.5,180" stroke="black" fill="none"></polyline><polyline points="1814.7222222222222,40 1930,65 1930,90" stroke="black" fill="none" marker-end="url(#SvgjsMarker1003)"></polyline><polyline points="2148.8888888888887,230 2110,245 2040.5555555555557,270" stroke="black" fill="none"></polyline><polyline points="2180,230 2180,245 2168.8888888888887,270" stroke="black" fill="none"></polyline><polyline points="1827.5,30.327868852459016 2180,65 2180,110 2180,155 2180,180" stroke="black" fill="none" marker-end="url(#SvgjsMarker1004)"></polyline><polyline points="1058.888888888889,410 995,425 995,450" stroke="black" fill="none"></polyline><polyline points="1127.7777777777778,410 1150,425 1150,450" stroke="black" fill="none"></polyline><polyline points="1192.2222222222222,410 1295,425 1295,450" stroke="black" fill="none"></polyline><polyline points="1195,410 1425,425 1425,450" stroke="black" fill="none"></polyline><polyline points="1489.4444444444443,320 1495,335 1195,370.06493506493507" stroke="black" fill="none"></polyline><polyline points="367.5,410 155,425 155,450" stroke="black" fill="none"></polyline><polyline points="388.6111111111111,410 365,425 365,450" stroke="black" fill="none"></polyline><polyline points="447.5,410 530,425 530,450" stroke="black" fill="none"></polyline><polyline points="447.5,410 705,425 705,450" stroke="black" fill="none"></polyline><polyline points="447.5,410 855,425 855,450" stroke="black" fill="none"></polyline><polyline points="1390,320 1262.5,335 447.5,377.89473684210526" stroke="black" fill="none"></polyline><polyline points="1683.611111111111,40 1635,65 1635,110 1635,155 1635,200 1635,245 1551.6666666666667,270" stroke="black" fill="none" marker-end="url(#SvgjsMarker1005)"></polyline><polyline points="1860.2777777777778,220 1895,245 2100,279.811320754717" stroke="black" fill="none" stroke-dasharray="4" marker-end="url(#SvgjsMarker1006)"></polyline><polyline points="1963.611111111111,220 1915,245 1953.888888888889,270" stroke="black" fill="none" stroke-dasharray="4" marker-end="url(#SvgjsMarker1007)"></polyline><polyline points="215,310 215,335 367.5,370.64935064935065" stroke="black" fill="none" stroke-dasharray="4" marker-end="url(#SvgjsMarker1008)"></polyline><polyline points="405,310 405,335 406.3888888888889,360" stroke="black" fill="none" stroke-dasharray="4" marker-end="url(#SvgjsMarker1009)"></polyline><polyline points="800,310 800,335 1025,367.66129032258067" stroke="black" fill="none" stroke-dasharray="4" marker-end="url(#SvgjsMarker1010)"></polyline><polyline points="1110,310 1110,335 1110,360" stroke="black" fill="none" stroke-dasharray="4" marker-end="url(#SvgjsMarker1011)"></polyline><polyline points="1205,220 1205,245 1390,274.73214285714283" stroke="black" fill="none" stroke-dasharray="4" marker-end="url(#SvgjsMarker1012)"></polyline><polyline points="817.5,140 1252.5,155 1430,186.63366336633663" stroke="black" fill="none" stroke-dasharray="4" marker-end="url(#SvgjsMarker1013)"></polyline><polyline points="2041.388888888889,220 2090,245 2128.8888888888887,270" stroke="black" fill="none" stroke-dasharray="4" marker-end="url(#SvgjsMarker1014)" marker-start="url(#SvgjsMarker1015)"></polyline><polyline points="1819.1666666666667,220 1802.5,245 1920,273.972602739726" stroke="black" fill="none" stroke-dasharray="4" marker-end="url(#SvgjsMarker1016)" marker-start="url(#SvgjsMarker1017)"></polyline></svg>