<?xml version="1.0" encoding="UTF-8" standalone="no"?><svg xmlns="http://www.w3.org/2000/svg" xmlns:xlink="http://www.w3.org/1999/xlink" contentScriptType="application/ecmascript" contentStyleType="text/css" height="225px" preserveAspectRatio="none" style="width:978px;height:225px;" version="1.1" viewBox="0 0 978 225" width="978px" zoomAndPan="magnify"><defs/><g><rect fill="#FFFFFF" height="62.5938" style="stroke: #444444; stroke-width: 1.0; stroke-dasharray: 7.0,7.0;" width="193" x="478.52" y="8"/><text fill="#000000" font-family="sans-serif" font-size="0" font-style="italic" lengthAdjust="spacingAndGlyphs" textLength="0" x="575.02" y="18">«boundary»</text><text fill="#444444" font-family="sans-serif" font-size="16" font-weight="bold" lengthAdjust="spacingAndGlyphs" textLength="173" x="488.52" y="42.8516">Trading Aggregator</text><text fill="#444444" font-family="sans-serif" font-size="12" lengthAdjust="spacingAndGlyphs" textLength="55" x="547.52" y="57.7637">[System]</text><rect fill="#08427B" height="52.5938" style="stroke: #073B6F; stroke-width: 1.5;" width="77" x="65.52" y="162"/><text fill="#FFFFFF" font-family="sans-serif" font-size="12" font-style="italic" lengthAdjust="spacingAndGlyphs" textLength="57" x="75.52" y="183.1387">«person»</text><text fill="#FFFFFF" font-family="sans-serif" font-size="16" font-weight="bold" lengthAdjust="spacingAndGlyphs" textLength="51" x="78.52" y="200.8203">Users</text><rect fill="#999999" height="52.5938" style="stroke: #8A8A8A; stroke-width: 1.5;" width="177" x="315.52" y="162"/><text fill="#FFFFFF" font-family="sans-serif" font-size="12" font-style="italic" lengthAdjust="spacingAndGlyphs" textLength="115" x="346.52" y="183.1387">«external_system»</text><text fill="#FFFFFF" font-family="sans-serif" font-size="16" font-weight="bold" lengthAdjust="spacingAndGlyphs" textLength="157" x="325.52" y="200.8203">Trading platforms</text><rect fill="#999999" height="52.5938" style="stroke: #8A8A8A; stroke-width: 1.5;" width="187" x="545.52" y="162"/><text fill="#FFFFFF" font-family="sans-serif" font-size="12" font-style="italic" lengthAdjust="spacingAndGlyphs" textLength="115" x="581.52" y="183.1387">«external_system»</text><text fill="#FFFFFF" font-family="sans-serif" font-size="16" font-weight="bold" lengthAdjust="spacingAndGlyphs" textLength="167" x="555.52" y="200.8203">Graph Visualization</text><rect fill="#999999" height="52.5938" style="stroke: #8A8A8A; stroke-width: 1.5;" width="157" x="810.52" y="162"/><text fill="#FFFFFF" font-family="sans-serif" font-size="12" font-style="italic" lengthAdjust="spacingAndGlyphs" textLength="115" x="831.52" y="183.1387">«external_system»</text><text fill="#FFFFFF" font-family="sans-serif" font-size="16" font-weight="bold" lengthAdjust="spacingAndGlyphs" textLength="137" x="820.52" y="200.8203">MySQL in Cloud</text><path d="M131.01,161.73 C153.36,141.92 186.86,115.56 221.02,101 C301.68,66.62 400.54,51.75 473.27,45.34 " fill="none" id="user-&gt;boundary" style="stroke: #666666; stroke-width: 1.0;"/><polygon fill="#666666" points="478.46,44.89,469.1497,41.6778,473.4785,45.3194,469.8368,49.6482,478.46,44.89" style="stroke: #666666; stroke-width: 1.0;"/><text fill="#666666" font-family="sans-serif" font-size="13" font-weight="bold" lengthAdjust="spacingAndGlyphs" textLength="147" x="222.02" y="121.0669">Requests/Responds</text><path d="M478.48,43.99 C325.99,50.52 43.49,67.07 13.02,101 C-9.19,125.73 27.36,151.69 60.54,168.64 " fill="none" id="boundary-&gt;user" style="stroke: #666666; stroke-width: 1.0;"/><polygon fill="#666666" points="65.4,171.08,59.1487,163.4694,60.9307,168.8382,55.5619,170.6202,65.4,171.08" style="stroke: #666666; stroke-width: 1.0;"/><text fill="#666666" font-family="sans-serif" font-size="13" font-weight="bold" lengthAdjust="spacingAndGlyphs" textLength="147" x="14.02" y="121.0669">Requests/Responds</text><path d="M478.08,47.96 C442.98,55.91 406.68,71.38 385.02,101 C373.25,117.11 378.29,139.12 386.14,156.91 " fill="none" id="boundary-&gt;trading_platform" style="stroke: #666666; stroke-width: 1.0;"/><polygon fill="#666666" points="388.41,161.8,388.2271,151.9528,386.2948,157.2694,380.9782,155.3372,388.41,161.8" style="stroke: #666666; stroke-width: 1.0;"/><text fill="#666666" font-family="sans-serif" font-size="13" font-weight="bold" lengthAdjust="spacingAndGlyphs" textLength="61" x="397.02" y="114.0669">Request</text><text fill="#666666" font-family="sans-serif" font-size="12" font-style="italic" lengthAdjust="spacingAndGlyphs" textLength="83" x="386.02" y="128.2715">[Stock, Price]</text><path d="M437.15,161.96 C448.92,152.69 462.19,142.03 474.02,132 C495.85,113.5 519.59,92.05 538.57,74.58 " fill="none" id="trading_platform-&gt;boundary" style="stroke: #666666; stroke-width: 1.0;"/><polygon fill="#666666" points="542.3,71.14,532.966,74.2827,538.6178,74.5225,538.378,80.1743,542.3,71.14" style="stroke: #666666; stroke-width: 1.0;"/><text fill="#666666" font-family="sans-serif" font-size="13" font-weight="bold" lengthAdjust="spacingAndGlyphs" textLength="65" x="517.02" y="114.0669">Respond</text><text fill="#666666" font-family="sans-serif" font-size="12" font-style="italic" lengthAdjust="spacingAndGlyphs" textLength="83" x="508.02" y="128.2715">[Stock, Price]</text><path d="M588.44,71.32 C599.37,96.42 614.72,131.68 625.64,156.76 " fill="none" id="boundary-&gt;graph" style="stroke: #666666; stroke-width: 1.0;"/><polygon fill="#666666" points="627.76,161.63,627.8543,151.7816,625.7732,157.0417,620.5131,154.9605,627.76,161.63" style="stroke: #666666; stroke-width: 1.0;"/><text fill="#666666" font-family="sans-serif" font-size="13" font-weight="bold" lengthAdjust="spacingAndGlyphs" textLength="61" x="615.02" y="114.0669">Request</text><text fill="#666666" font-family="sans-serif" font-size="12" font-style="italic" lengthAdjust="spacingAndGlyphs" textLength="40" x="625.52" y="128.2715">[Data]</text><path d="M667.29,161.81 C682.87,144.42 696.88,121.06 685.02,101 C678.76,90.41 669.92,81.55 659.93,74.17 " fill="none" id="graph-&gt;boundary" style="stroke: #666666; stroke-width: 1.0;"/><polygon fill="#666666" points="655.58,71.1,660.6039,79.5711,659.6573,73.994,665.2344,73.0474,655.58,71.1" style="stroke: #666666; stroke-width: 1.0;"/><text fill="#666666" font-family="sans-serif" font-size="13" font-weight="bold" lengthAdjust="spacingAndGlyphs" textLength="65" x="690.02" y="114.0669">Respond</text><text fill="#666666" font-family="sans-serif" font-size="12" font-style="italic" lengthAdjust="spacingAndGlyphs" textLength="40" x="702.52" y="128.2715">[Data]</text><path d="M671.87,65.48 C702.12,74.86 735.12,86.77 764.02,101 C796.25,116.87 829.55,140.32 853.67,158.8 " fill="none" id="boundary-&gt;database" style="stroke: #666666; stroke-width: 1.0;"/><polygon fill="#666666" points="857.76,161.96,853.0833,153.2923,853.8033,158.9032,848.1924,159.6231,857.76,161.96" style="stroke: #666666; stroke-width: 1.0;"/><text fill="#666666" font-family="sans-serif" font-size="13" font-weight="bold" lengthAdjust="spacingAndGlyphs" textLength="41" x="815.02" y="114.0669">CRUD</text><text fill="#666666" font-family="sans-serif" font-size="12" font-style="italic" lengthAdjust="spacingAndGlyphs" textLength="40" x="815.52" y="128.2715">[Data]</text><path d="M888.73,161.93 C887.1,142.5 881.63,116.56 865.02,101 C837.95,75.63 749.27,59.64 677.03,50.51 " fill="none" id="database-&gt;boundary" style="stroke: #666666; stroke-width: 1.0;"/><polygon fill="#666666" points="671.86,49.87,680.2853,54.9704,676.8203,50.499,681.2917,47.0339,671.86,49.87" style="stroke: #666666; stroke-width: 1.0;"/><text fill="#666666" font-family="sans-serif" font-size="13" font-weight="bold" lengthAdjust="spacingAndGlyphs" textLength="65" x="884.02" y="114.0669">Respond</text><text fill="#666666" font-family="sans-serif" font-size="12" font-style="italic" lengthAdjust="spacingAndGlyphs" textLength="40" x="896.52" y="128.2715">[Data]</text></g></svg>