<?xml version="1.0" encoding="UTF-8" standalone="no"?><svg xmlns="http://www.w3.org/2000/svg" xmlns:xlink="http://www.w3.org/1999/xlink" contentScriptType="application/ecmascript" contentStyleType="text/css" height="378px" preserveAspectRatio="none" style="width:623px;height:378px;" version="1.1" viewBox="0 0 623 378" width="623px" zoomAndPan="magnify"><defs><filter height="300%" id="f72ysedj8ipwf" width="300%" x="-1" y="-1"><feGaussianBlur result="blurOut" stdDeviation="2.0"/><feColorMatrix in="blurOut" result="blurOut2" type="matrix" values="0 0 0 0 0 0 0 0 0 0 0 0 0 0 0 0 0 0 .4 0"/><feOffset dx="4.0" dy="4.0" in="blurOut2" result="blurOut3"/><feBlend in="SourceGraphic" in2="blurOut3" mode="normal"/></filter></defs><g><text fill="#000000" font-family="sans-serif" font-size="14" font-weight="bold" lengthAdjust="spacingAndGlyphs" textLength="314" x="155.25" y="22.9951">"Add Stock into portfolio" Process View</text><rect fill="#FFFFFF" filter="url(#f72ysedj8ipwf)" height="177.6016" style="stroke: #000000; stroke-width: 2.0;" width="598.5" x="13" y="143.8594"/><rect fill="#FFFFFF" height="73.0703" style="stroke: none; stroke-width: 1.0;" width="598.5" x="13" y="248.3906"/><line style="stroke: #A80036; stroke-width: 1.0; stroke-dasharray: 5.0,5.0;" x1="80" x2="80" y1="68.5938" y2="338.4609"/><line style="stroke: #A80036; stroke-width: 1.0; stroke-dasharray: 5.0,5.0;" x1="283.5" x2="283.5" y1="68.5938" y2="338.4609"/><line style="stroke: #A80036; stroke-width: 1.0; stroke-dasharray: 5.0,5.0;" x1="438.5" x2="438.5" y1="68.5938" y2="338.4609"/><line style="stroke: #A80036; stroke-width: 1.0; stroke-dasharray: 5.0,5.0;" x1="559.5" x2="559.5" y1="68.5938" y2="338.4609"/><rect fill="#FEFECE" filter="url(#f72ysedj8ipwf)" height="30.2969" style="stroke: #A80036; stroke-width: 1.5;" width="110" x="23" y="33.2969"/><text fill="#000000" font-family="sans-serif" font-size="14" lengthAdjust="spacingAndGlyphs" textLength="96" x="30" y="53.292">User Interface</text><rect fill="#FEFECE" filter="url(#f72ysedj8ipwf)" height="30.2969" style="stroke: #A80036; stroke-width: 1.5;" width="110" x="23" y="337.4609"/><text fill="#000000" font-family="sans-serif" font-size="14" lengthAdjust="spacingAndGlyphs" textLength="96" x="30" y="357.4561">User Interface</text><rect fill="#FEFECE" filter="url(#f72ysedj8ipwf)" height="30.2969" style="stroke: #A80036; stroke-width: 1.5;" width="147" x="208.5" y="33.2969"/><text fill="#000000" font-family="sans-serif" font-size="14" lengthAdjust="spacingAndGlyphs" textLength="133" x="215.5" y="53.292">Trading Aggregator</text><rect fill="#FEFECE" filter="url(#f72ysedj8ipwf)" height="30.2969" style="stroke: #A80036; stroke-width: 1.5;" width="147" x="208.5" y="337.4609"/><text fill="#000000" font-family="sans-serif" font-size="14" lengthAdjust="spacingAndGlyphs" textLength="133" x="215.5" y="357.4561">Trading Aggregator</text><rect fill="#FEFECE" filter="url(#f72ysedj8ipwf)" height="30.2969" style="stroke: #A80036; stroke-width: 1.5;" width="134" x="369.5" y="33.2969"/><text fill="#000000" font-family="sans-serif" font-size="14" lengthAdjust="spacingAndGlyphs" textLength="120" x="376.5" y="53.292">Trading platforms</text><rect fill="#FEFECE" filter="url(#f72ysedj8ipwf)" height="30.2969" style="stroke: #A80036; stroke-width: 1.5;" width="134" x="369.5" y="337.4609"/><text fill="#000000" font-family="sans-serif" font-size="14" lengthAdjust="spacingAndGlyphs" textLength="120" x="376.5" y="357.4561">Trading platforms</text><rect fill="#FEFECE" filter="url(#f72ysedj8ipwf)" height="30.2969" style="stroke: #A80036; stroke-width: 1.5;" width="80" x="517.5" y="33.2969"/><text fill="#000000" font-family="sans-serif" font-size="14" lengthAdjust="spacingAndGlyphs" textLength="66" x="524.5" y="53.292">Database</text><rect fill="#FEFECE" filter="url(#f72ysedj8ipwf)" height="30.2969" style="stroke: #A80036; stroke-width: 1.5;" width="80" x="517.5" y="337.4609"/><text fill="#000000" font-family="sans-serif" font-size="14" lengthAdjust="spacingAndGlyphs" textLength="66" x="524.5" y="357.4561">Database</text><polygon fill="#A80036" points="272,95.7266,282,99.7266,272,103.7266,276,99.7266" style="stroke: #A80036; stroke-width: 1.0;"/><line style="stroke: #A80036; stroke-width: 1.0;" x1="80" x2="278" y1="99.7266" y2="99.7266"/><text fill="#000000" font-family="sans-serif" font-size="13" lengthAdjust="spacingAndGlyphs" textLength="80" x="87" y="94.6606">Select Stock</text><polygon fill="#A80036" points="426.5,124.8594,436.5,128.8594,426.5,132.8594,430.5,128.8594" style="stroke: #A80036; stroke-width: 1.0;"/><line style="stroke: #A80036; stroke-width: 1.0;" x1="284" x2="432.5" y1="128.8594" y2="128.8594"/><text fill="#000000" font-family="sans-serif" font-size="13" lengthAdjust="spacingAndGlyphs" textLength="63" x="291" y="123.7935">Get Stock</text><path d="M13,143.8594 L77,143.8594 L77,150.8594 L67,160.8594 L13,160.8594 L13,143.8594 " fill="#EEEEEE" style="stroke: #000000; stroke-width: 1.0;"/><rect fill="none" height="177.6016" style="stroke: #000000; stroke-width: 2.0;" width="598.5" x="13" y="143.8594"/><text fill="#000000" font-family="sans-serif" font-size="13" font-weight="bold" lengthAdjust="spacingAndGlyphs" textLength="19" x="28" y="156.9263">alt</text><text fill="#000000" font-family="sans-serif" font-size="11" font-weight="bold" lengthAdjust="spacingAndGlyphs" textLength="177" x="92" y="156.0698">[request positive accepted]</text><polygon fill="#A80036" points="295,178.125,285,182.125,295,186.125,291,182.125" style="stroke: #A80036; stroke-width: 1.0;"/><line style="stroke: #A80036; stroke-width: 1.0;" x1="289" x2="437.5" y1="182.125" y2="182.125"/><text fill="#000000" font-family="sans-serif" font-size="13" lengthAdjust="spacingAndGlyphs" textLength="15" x="301" y="177.0591">ok</text><polygon fill="#A80036" points="547.5,207.2578,557.5,211.2578,547.5,215.2578,551.5,211.2578" style="stroke: #A80036; stroke-width: 1.0;"/><line style="stroke: #A80036; stroke-width: 1.0;" x1="284" x2="553.5" y1="211.2578" y2="211.2578"/><text fill="#000000" font-family="sans-serif" font-size="13" lengthAdjust="spacingAndGlyphs" textLength="47" x="291" y="206.1919">Store it</text><polygon fill="#A80036" points="91,236.3906,81,240.3906,91,244.3906,87,240.3906" style="stroke: #A80036; stroke-width: 1.0;"/><line style="stroke: #A80036; stroke-width: 1.0;" x1="85" x2="283" y1="240.3906" y2="240.3906"/><text fill="#000000" font-family="sans-serif" font-size="13" lengthAdjust="spacingAndGlyphs" textLength="80" x="97" y="235.3247">Stock added</text><line style="stroke: #000000; stroke-width: 1.0; stroke-dasharray: 2.0,2.0;" x1="13" x2="611.5" y1="249.3906" y2="249.3906"/><text fill="#000000" font-family="sans-serif" font-size="11" font-weight="bold" lengthAdjust="spacingAndGlyphs" textLength="102" x="18" y="259.6011">[error message]</text><polygon fill="#A80036" points="295,280.3281,285,284.3281,295,288.3281,291,284.3281" style="stroke: #A80036; stroke-width: 1.0;"/><line style="stroke: #A80036; stroke-width: 1.0;" x1="289" x2="437.5" y1="284.3281" y2="284.3281"/><text fill="#000000" font-family="sans-serif" font-size="13" lengthAdjust="spacingAndGlyphs" textLength="87" x="301" y="279.2622">request failed</text><polygon fill="#A80036" points="91,309.4609,81,313.4609,91,317.4609,87,313.4609" style="stroke: #A80036; stroke-width: 1.0;"/><line style="stroke: #A80036; stroke-width: 1.0;" x1="85" x2="283" y1="313.4609" y2="313.4609"/><text fill="#000000" font-family="sans-serif" font-size="13" lengthAdjust="spacingAndGlyphs" textLength="180" x="97" y="308.395">Inform about error message</text></g></svg>