<?xml version="1.0" encoding="UTF-8" standalone="no"?><svg xmlns="http://www.w3.org/2000/svg" xmlns:xlink="http://www.w3.org/1999/xlink" contentScriptType="application/ecmascript" contentStyleType="text/css" height="361px" preserveAspectRatio="none" style="width:771px;height:361px;" version="1.1" viewBox="0 0 771 361" width="771px" zoomAndPan="magnify"><defs><filter height="300%" id="f12bb68hximhez" width="300%" x="-1" y="-1"><feGaussianBlur result="blurOut" stdDeviation="2.0"/><feColorMatrix in="blurOut" result="blurOut2" type="matrix" values="0 0 0 0 0 0 0 0 0 0 0 0 0 0 0 0 0 0 .4 0"/><feOffset dx="4.0" dy="4.0" in="blurOut2" result="blurOut3"/><feBlend in="SourceGraphic" in2="blurOut3" mode="normal"/></filter></defs><g><text fill="#000000" font-family="sans-serif" font-size="14" font-weight="bold" lengthAdjust="spacingAndGlyphs" textLength="397" x="187.75" y="22.9951">"Convert portfolio from USD to EUR" Process View</text><line style="stroke: #A80036; stroke-width: 1.0; stroke-dasharray: 5.0,5.0;" x1="65" x2="65" y1="68.5938" y2="321.6563"/><line style="stroke: #A80036; stroke-width: 1.0; stroke-dasharray: 5.0,5.0;" x1="245.5" x2="245.5" y1="68.5938" y2="321.6563"/><line style="stroke: #A80036; stroke-width: 1.0; stroke-dasharray: 5.0,5.0;" x1="436.5" x2="436.5" y1="68.5938" y2="321.6563"/><line style="stroke: #A80036; stroke-width: 1.0; stroke-dasharray: 5.0,5.0;" x1="562.5" x2="562.5" y1="68.5938" y2="321.6563"/><line style="stroke: #A80036; stroke-width: 1.0; stroke-dasharray: 5.0,5.0;" x1="689.5" x2="689.5" y1="68.5938" y2="321.6563"/><rect fill="#FEFECE" filter="url(#f12bb68hximhez)" height="30.2969" style="stroke: #A80036; stroke-width: 1.5;" width="110" x="8" y="33.2969"/><text fill="#000000" font-family="sans-serif" font-size="14" lengthAdjust="spacingAndGlyphs" textLength="96" x="15" y="53.292">User Interface</text><rect fill="#FEFECE" filter="url(#f12bb68hximhez)" height="30.2969" style="stroke: #A80036; stroke-width: 1.5;" width="110" x="8" y="320.6563"/><text fill="#000000" font-family="sans-serif" font-size="14" lengthAdjust="spacingAndGlyphs" textLength="96" x="15" y="340.6514">User Interface</text><rect fill="#FEFECE" filter="url(#f12bb68hximhez)" height="30.2969" style="stroke: #A80036; stroke-width: 1.5;" width="147" x="170.5" y="33.2969"/><text fill="#000000" font-family="sans-serif" font-size="14" lengthAdjust="spacingAndGlyphs" textLength="133" x="177.5" y="53.292">Trading Aggregator</text><rect fill="#FEFECE" filter="url(#f12bb68hximhez)" height="30.2969" style="stroke: #A80036; stroke-width: 1.5;" width="147" x="170.5" y="320.6563"/><text fill="#000000" font-family="sans-serif" font-size="14" lengthAdjust="spacingAndGlyphs" textLength="133" x="177.5" y="340.6514">Trading Aggregator</text><rect fill="#FEFECE" filter="url(#f12bb68hximhez)" height="30.2969" style="stroke: #A80036; stroke-width: 1.5;" width="143" x="363.5" y="33.2969"/><text fill="#000000" font-family="sans-serif" font-size="14" lengthAdjust="spacingAndGlyphs" textLength="129" x="370.5" y="53.292">Graph visualization</text><rect fill="#FEFECE" filter="url(#f12bb68hximhez)" height="30.2969" style="stroke: #A80036; stroke-width: 1.5;" width="143" x="363.5" y="320.6563"/><text fill="#000000" font-family="sans-serif" font-size="14" lengthAdjust="spacingAndGlyphs" textLength="129" x="370.5" y="340.6514">Graph visualization</text><rect fill="#FEFECE" filter="url(#f12bb68hximhez)" height="30.2969" style="stroke: #A80036; stroke-width: 1.5;" width="80" x="520.5" y="33.2969"/><text fill="#000000" font-family="sans-serif" font-size="14" lengthAdjust="spacingAndGlyphs" textLength="66" x="527.5" y="53.292">Database</text><rect fill="#FEFECE" filter="url(#f12bb68hximhez)" height="30.2969" style="stroke: #A80036; stroke-width: 1.5;" width="80" x="520.5" y="320.6563"/><text fill="#000000" font-family="sans-serif" font-size="14" lengthAdjust="spacingAndGlyphs" textLength="66" x="527.5" y="340.6514">Database</text><rect fill="#FEFECE" filter="url(#f12bb68hximhez)" height="30.2969" style="stroke: #A80036; stroke-width: 1.5;" width="146" x="614.5" y="33.2969"/><text fill="#000000" font-family="sans-serif" font-size="14" lengthAdjust="spacingAndGlyphs" textLength="132" x="621.5" y="53.292">Currency converter</text><rect fill="#FEFECE" filter="url(#f12bb68hximhez)" height="30.2969" style="stroke: #A80036; stroke-width: 1.5;" width="146" x="614.5" y="320.6563"/><text fill="#000000" font-family="sans-serif" font-size="14" lengthAdjust="spacingAndGlyphs" textLength="132" x="621.5" y="340.6514">Currency converter</text><polygon fill="#A80036" points="234,95.7266,244,99.7266,234,103.7266,238,99.7266" style="stroke: #A80036; stroke-width: 1.0;"/><line style="stroke: #A80036; stroke-width: 1.0;" x1="65" x2="240" y1="99.7266" y2="99.7266"/><text fill="#000000" font-family="sans-serif" font-size="13" lengthAdjust="spacingAndGlyphs" textLength="70" x="72" y="94.6606">Select EUR</text><polygon fill="#A80036" points="425,124.8594,435,128.8594,425,132.8594,429,128.8594" style="stroke: #A80036; stroke-width: 1.0;"/><line style="stroke: #A80036; stroke-width: 1.0;" x1="246" x2="431" y1="128.8594" y2="128.8594"/><text fill="#000000" font-family="sans-serif" font-size="13" lengthAdjust="spacingAndGlyphs" textLength="53" x="253" y="123.7935">Get EUR</text><polygon fill="#A80036" points="257,153.9922,247,157.9922,257,161.9922,253,157.9922" style="stroke: #A80036; stroke-width: 1.0;"/><line style="stroke: #A80036; stroke-width: 1.0;" x1="251" x2="436" y1="157.9922" y2="157.9922"/><text fill="#000000" font-family="sans-serif" font-size="13" lengthAdjust="spacingAndGlyphs" textLength="167" x="263" y="152.9263">What are prices and dates</text><polygon fill="#A80036" points="550.5,183.125,560.5,187.125,550.5,191.125,554.5,187.125" style="stroke: #A80036; stroke-width: 1.0;"/><line style="stroke: #A80036; stroke-width: 1.0;" x1="246" x2="556.5" y1="187.125" y2="187.125"/><text fill="#000000" font-family="sans-serif" font-size="13" lengthAdjust="spacingAndGlyphs" textLength="159" x="253" y="182.0591">Choose prices with dates</text><polygon fill="#A80036" points="257,212.2578,247,216.2578,257,220.2578,253,216.2578" style="stroke: #A80036; stroke-width: 1.0;"/><line style="stroke: #A80036; stroke-width: 1.0;" x1="251" x2="561.5" y1="216.2578" y2="216.2578"/><text fill="#000000" font-family="sans-serif" font-size="13" lengthAdjust="spacingAndGlyphs" textLength="166" x="263" y="211.1919">Provided prices with dates</text><polygon fill="#A80036" points="677.5,241.3906,687.5,245.3906,677.5,249.3906,681.5,245.3906" style="stroke: #A80036; stroke-width: 1.0;"/><line style="stroke: #A80036; stroke-width: 1.0;" x1="246" x2="683.5" y1="245.3906" y2="245.3906"/><text fill="#000000" font-family="sans-serif" font-size="13" lengthAdjust="spacingAndGlyphs" textLength="242" x="253" y="240.3247">Convert prices to EUR based on dates</text><polygon fill="#A80036" points="257,270.5234,247,274.5234,257,278.5234,253,274.5234" style="stroke: #A80036; stroke-width: 1.0;"/><line style="stroke: #A80036; stroke-width: 1.0;" x1="251" x2="688.5" y1="274.5234" y2="274.5234"/><text fill="#000000" font-family="sans-serif" font-size="13" lengthAdjust="spacingAndGlyphs" textLength="131" x="263" y="269.4575">Prices are converted</text><polygon fill="#A80036" points="76,299.6563,66,303.6563,76,307.6563,72,303.6563" style="stroke: #A80036; stroke-width: 1.0;"/><line style="stroke: #A80036; stroke-width: 1.0;" x1="70" x2="245" y1="303.6563" y2="303.6563"/><text fill="#000000" font-family="sans-serif" font-size="13" lengthAdjust="spacingAndGlyphs" textLength="157" x="82" y="298.5903">Visualize portfolio in EUR</text></g></svg>